<?xml version="1.0" encoding="utf-8"?>
<!-- Generator: Adobe Illustrator 22.1.0, SVG Export Plug-In . SVG Version: 6.00 Build 0)  -->
<svg version="1.1" id="Слой_1" xmlns="http://www.w3.org/2000/svg" xmlns:xlink="http://www.w3.org/1999/xlink" x="0px" y="0px"
	 viewBox="0 0 21 21" style="enable-background:new 0 0 21 21;" xml:space="preserve">
<style type="text/css">
	.st0{fill:none;}
	.st1{fill:#FFFFFF;}
</style>
<rect class="st0" width="21" height="21"/>
<path class="st1" d="M4.9,10.8c0-0.2,0.1-0.4,0.2-0.6c0,0,0,0,0,0C5.4,9.9,5.7,9.6,6,9.3C6.1,9.1,6.3,9,6.5,9c0,0,0,0,0.1,0
	C6.8,9,7,9.2,7.2,9.4c0.5,0.6,1.1,1.2,1.7,1.8c0.3,0.3,0.3,0.4,0.5,0.2c1.1-1.2,2.2-2.3,3.3-3.5C13,7.4,13.4,7,13.8,6.5
	C13.9,6.5,14,6.4,14,6.4c0,0,0.1-0.1,0.1-0.1c0.3-0.1,0.6-0.1,0.9,0.2c0.1,0.1,0.1,0.1,0.2,0.2c0,0.1,0.1,0.1,0.1,0.2
	c0.1,0.1,0.2,0.2,0.3,0.4c0,0,0.1,0.1,0.1,0.1c0,0,0.1,0.1,0.1,0.1c0.1,0.2,0.2,0.4,0.2,0.6c0,0.2-0.1,0.4-0.2,0.6c0,0,0,0,0,0
	c-2,2.1-4,4.3-6.1,6.4c-0.2,0.2-0.4,0.4-0.7,0.3c-0.2,0-0.4-0.2-0.5-0.3c-1.1-1.2-2.3-2.4-3.4-3.6c0,0,0,0,0,0
	C4.9,11.3,4.9,11,4.9,10.8z"/>
</svg>
