<svg width="71" height="93" viewBox="0 0 71 93" fill="none" xmlns="http://www.w3.org/2000/svg">
<g clip-path="url(#clip0_158_634)">
<path d="M70.494 77.5428C70.4011 67.0675 66.4975 58.3801 58.7421 51.543C56.2981 49.3883 53.5635 47.6964 50.5511 46.3932C50.5511 46.5557 50.5355 46.6462 50.5533 46.7292C51.3435 50.4267 52.1112 54.1281 51.9196 57.9492C51.8987 58.3657 52.16 58.53 52.3901 58.747C53.8166 60.0917 55.155 61.5225 56.3526 63.0848C58.4699 65.8469 60.209 68.7949 60.8016 72.339C61.5736 76.9558 58.9505 81.2887 54.5621 82.5614C53.6331 82.8308 52.665 82.3785 52.2952 81.5023C51.8999 80.5658 52.2477 79.5265 53.1407 79.0365C53.4224 78.882 53.7348 78.7872 54.0296 78.6567C56.3029 77.6511 57.4174 75.7697 57.1369 73.386C57.0422 72.5809 56.8789 71.7881 56.5941 71.0271C55.1497 67.1686 52.5674 64.1723 49.6782 61.4015C49.3365 61.0738 49.1066 61.2769 48.8326 61.4202C46.6349 62.5697 44.5596 63.915 42.6887 65.5683C41.0128 67.0493 39.4996 68.6753 38.6976 70.8508C37.892 73.0358 38.298 74.8328 39.9448 76.4127C40.3073 76.7606 40.7335 77.0393 41.0923 77.3906C41.8035 78.087 41.8723 79.1403 41.2915 79.9275C40.7514 80.6595 39.7328 80.8877 38.9216 80.4585C36.123 78.9779 34.1737 75.0862 34.5825 71.9105C34.9339 69.181 36.1952 66.9271 37.948 64.9259C40.5682 61.9345 43.7631 59.7225 47.257 57.9668C48.0543 57.5662 48.2838 57.1187 48.2281 56.2644C47.9927 52.6557 47.268 49.1387 46.4666 45.6303C46.343 45.0893 46.1329 44.8614 45.5929 44.7162C40.842 43.4387 36.0028 43.646 31.1714 43.782C28.7629 43.8498 26.4045 44.3244 24.0806 44.9714C23.6735 45.0848 23.4128 45.2732 23.2228 45.7226C20.3819 52.4452 18.5452 59.455 17.3812 66.6693C17.2629 67.4025 17.4692 67.6126 18.0741 67.8556C21.8118 69.3567 23.7692 73.54 22.5961 77.4273C21.4 81.3909 17.5037 83.7267 13.568 82.8396C10.2818 82.0989 7.74977 79.1522 7.55445 75.8415C7.33121 72.0572 9.36197 68.8531 12.7638 67.6832C13.2545 67.5145 13.5049 67.34 13.5908 66.7462C14.3175 61.7267 15.4335 56.7947 16.9277 51.9562C17.4073 50.4029 17.9546 48.8716 18.5506 47.0924C7.7122 53.269 1.4053 62.2911 0.381556 74.8432C-0.0383263 79.9914 0.316434 85.1754 0.233944 90.3422C0.215359 91.5065 0.558879 92.3733 1.58663 92.9113C24.108 92.9113 46.6294 92.9113 69.1508 92.9113C70.1878 92.3792 70.5219 91.4987 70.5133 90.3429C70.4814 86.0764 70.5318 81.8092 70.494 77.5428Z" fill="white"/>
<path d="M39.6409 40.2175C48.0338 38.296 54.4578 30.6177 54.8866 21.9949C55.347 12.7384 50.0409 4.59078 41.6774 1.65211C40.2468 1.14945 38.7531 0.977025 37.3041 0.585938C35.8965 0.585938 34.489 0.585938 33.0814 0.585938C33.0038 0.818218 32.8013 0.75032 32.6403 0.775677C21.939 2.46212 14.6614 12.2389 15.9829 23.1549C17.397 34.837 28.4194 42.7865 39.6409 40.2175Z" fill="white"/>
</g>
<defs>
<clipPath id="clip0_158_634">
<rect width="70.3416" height="92.3233" fill="white" transform="translate(0.171875 0.585938)"/>
</clipPath>
</defs>
</svg>
