<svg width="25" height="25" viewBox="0 0 25 25" fill="none" xmlns="http://www.w3.org/2000/svg">
    <path d="M24.1721 21.8154C24.1908 21.7398 24.1614 21.6398 24.2536 21.5879C24.2536 15.5907 24.2536 9.59364 24.2536 3.59653C24.1244 3.23512 24.0687 2.85115 23.8829 2.5062C23.2363 1.30537 22.2323 0.653472 20.8655 0.548583C20.779 0.541953 20.6919 0.543386 20.6051 0.543382C14.9528 0.543164 9.30049 0.54244 3.6482 0.543655C2.02022 0.544006 0.703156 1.46585 0.184854 2.96202C0.0556293 3.33506 0.000306345 3.72004 0.000344639 4.11419C0.00087624 9.75075 -0.00166014 15.3873 0.00212642 21.0239C0.00328649 22.7469 1.12984 24.1283 2.8257 24.5196C2.89406 24.5353 2.98908 24.5025 3.03229 24.5942C5.59022 24.5942 8.14815 24.5942 10.7061 24.5942C10.7061 21.8386 10.7038 19.083 10.711 16.3275C10.7115 16.1332 10.6674 16.0834 10.4693 16.0865C9.66434 16.0992 8.85898 16.0875 8.05386 16.0955C7.8995 16.0971 7.85947 16.0571 7.86025 15.9037C7.86674 14.6199 7.86674 13.336 7.86025 12.0522C7.85947 11.8988 7.89954 11.8589 8.05387 11.8604C8.87478 11.8683 9.69585 11.8598 10.5168 11.8679C10.6723 11.8694 10.7111 11.8277 10.7098 11.6754C10.7021 10.8143 10.7046 9.95315 10.7064 9.09203C10.7113 6.62921 12.5794 4.77568 15.0624 4.77133C16.3965 4.76898 17.7306 4.77441 19.0647 4.7666C19.2381 4.76559 19.286 4.80183 19.2847 4.98089C19.2756 6.24903 19.2762 7.51729 19.2843 8.78543C19.2854 8.95791 19.248 9.00462 19.0679 9.00338C17.7733 8.99448 16.4786 9.00231 15.184 8.99425C15.0096 8.99317 14.962 9.03079 14.9644 9.20911C14.9755 10.0231 14.975 10.8374 14.9647 11.6515C14.9625 11.8253 15.003 11.87 15.1819 11.8688C16.4607 11.86 17.7395 11.8641 19.0184 11.8641C19.0968 11.8641 19.1753 11.8641 19.2776 11.8641C19.1764 12.4756 19.0783 13.0725 18.9786 13.6691C18.8575 14.3939 18.7321 15.118 18.6155 15.8434C18.588 16.0142 18.5512 16.1029 18.3319 16.0994C17.2822 16.0825 16.2321 16.0966 15.1823 16.0871C15.0042 16.0855 14.9645 16.1297 14.9649 16.304C14.9711 19.0674 14.9693 21.8308 14.9693 24.5942C17.022 24.5942 19.0746 24.5942 21.1273 24.5942C21.3493 24.5361 21.5767 24.4928 21.7926 24.4174C23.0572 23.9763 23.8512 23.1091 24.1721 21.8154Z"
          fill="white"/>
</svg>
