<svg width="25" height="25" viewBox="0 0 25 25" fill="none" xmlns="http://www.w3.org/2000/svg">
<path d="M3.83686 24.1629C4.60253 24.4812 5.411 24.594 6.23973 24.5934C10.1694 24.5904 14.0991 24.5993 18.0288 24.5893C20.4276 24.5832 22.2527 23.5426 23.4748 21.499C24.0159 20.5943 24.2495 19.5916 24.2499 18.5398C24.2517 14.5567 24.2584 10.5736 24.2479 6.59053C24.241 3.93022 22.5742 1.6689 20.0282 0.83109C19.6543 0.708033 19.268 0.628498 18.8749 0.587252C18.8323 0.582781 18.7773 0.606361 18.7564 0.542969C14.3041 0.542969 9.85184 0.542969 5.39956 0.542969C5.0895 0.674984 4.74862 0.673802 4.42825 0.770663C2.52486 1.34605 1.19387 2.54311 0.427345 4.3601C0.235186 4.8156 0.125046 5.29408 0.0521974 5.78152C0.0459008 5.82366 0.062523 5.87911 0 5.89765C0 10.3442 0 14.7908 0 19.2374C0.132942 19.5454 0.132309 19.8839 0.229947 20.2021C0.807695 22.0848 2.0121 23.4041 3.83686 24.1629ZM18.6955 4.55088C19.5261 4.55364 20.2268 5.25602 20.209 6.06807C20.1906 6.90607 19.5041 7.56626 18.6677 7.55028C17.8242 7.53416 17.1633 6.85072 17.185 6.01698C17.2061 5.20525 17.8831 4.54817 18.6955 4.55088ZM12.1087 7.55592C14.864 7.52144 17.156 9.78212 17.179 12.5569C17.2016 15.2963 14.9165 17.5693 12.1298 17.5791C9.35816 17.5888 7.06855 15.3196 7.07174 12.5661C7.07494 9.81299 9.30885 7.59096 12.1087 7.55592Z" fill="white"/>
</svg>
