<svg width="80" height="80" viewBox="0 0 80 80" fill="none" xmlns="http://www.w3.org/2000/svg">
<g clip-path="url(#clip0_158_640)">
<path d="M79.5068 18.2473C79.5074 17.3683 79.2453 16.6467 78.6258 16.028C73.6717 11.0798 68.7179 6.13107 63.7616 1.18491C63.1652 0.589701 62.4696 0.307891 61.6151 0.308595C49.6625 0.318471 37.7099 0.312251 25.7573 0.322153C24.9635 0.322806 24.1659 0.375592 23.4139 0.705023C20.4259 2.01389 18.9261 4.33294 18.9155 7.54929C18.884 17.1964 18.9047 26.8438 18.9037 36.491C18.9035 37.6519 18.8994 37.6445 17.7404 37.8596C12.7359 38.7886 8.58688 41.217 5.29186 45.0686C0.963567 50.1281 -0.387108 56.1083 0.778077 62.4756C2.2139 70.3219 7.00092 75.6154 14.4729 78.4716C16.0273 79.0658 17.6453 79.29 19.2832 79.4428C37.3202 79.4428 55.3572 79.4428 73.3943 79.4428C73.9571 79.2649 74.5634 79.3611 75.1247 79.1347C77.6762 78.1054 79.518 75.673 79.5132 72.6579C79.4841 54.5211 79.496 36.3842 79.5068 18.2473ZM63.9639 8.4676C66.4263 10.9273 68.8538 13.3522 71.3367 15.8325C71.3357 15.84 71.2321 15.8296 71.1315 15.8296C68.9199 15.8294 66.7083 15.8328 64.4967 15.8254C64.2773 15.8247 63.9584 15.9641 63.96 15.5129C63.9683 13.1627 63.9639 10.8124 63.9639 8.4676ZM21.4034 74.8105C12.4502 74.7915 5.1835 67.4775 5.21485 58.5165C5.246 49.6122 12.5534 42.3704 21.4901 42.3872C30.4145 42.404 37.6828 49.6836 37.6805 58.6025C37.6781 67.5511 30.3687 74.8295 21.4034 74.8105ZM74.7845 72.2317C74.7843 73.8025 73.8497 74.8065 72.3502 74.8072C59.9064 74.8134 47.4626 74.8107 35.0187 74.8099C34.9247 74.8099 34.8307 74.7988 34.5977 74.784C38.809 71.21 41.3037 66.8452 42.0972 61.5406C42.1756 61.0171 42.3388 60.9006 42.8499 60.9018C50.5789 60.9206 58.308 60.9114 66.0371 60.9188C67.0852 60.9198 67.8964 60.5392 68.364 59.5826C69.1181 58.0396 68.0074 56.313 66.2357 56.2883C64.5099 56.2643 62.7835 56.2829 61.0573 56.2829C55.0029 56.2829 48.9484 56.2764 42.894 56.2944C42.373 56.296 42.1586 56.2098 42.0815 55.6271C41.6756 52.559 40.5658 49.7386 38.7972 47.0189C39.1834 47.0189 39.4511 47.0189 39.7188 47.0189C48.5042 47.0189 57.2896 47.0216 66.075 47.0166C67.8992 47.0156 69.0751 45.4422 68.4296 43.8629C68.0425 42.9161 67.2993 42.4136 66.2749 42.3926C65.1161 42.3689 63.9563 42.3869 62.797 42.3869C53.6251 42.3869 44.4533 42.3841 35.2814 42.3948C34.7975 42.3954 34.4144 42.2863 34.019 41.9849C31.1396 39.7906 27.8902 38.4524 24.3055 37.9606C23.8041 37.8919 23.7591 37.7037 23.7595 37.2902C23.7687 27.3585 23.7644 17.4268 23.7693 7.49515C23.77 5.97678 24.7533 5.02425 26.3059 5.02381C37.1009 5.02075 47.8958 5.02737 58.6908 5.00771C59.2678 5.00667 59.3394 5.19875 59.3368 5.70271C59.3163 9.69072 59.325 13.6789 59.3256 17.667C59.3258 19.6131 60.187 20.4618 62.1608 20.462C66.1284 20.4624 70.096 20.4708 74.0635 20.4516C74.5864 20.449 74.8044 20.4989 74.8035 21.1325C74.7811 38.1655 74.7863 55.1986 74.7845 72.2317Z" fill="white"/>
<path d="M66.084 28.4942C58.3322 28.4888 50.5804 28.4919 42.8286 28.4919C39.3776 28.4919 35.9266 28.4979 32.4756 28.4883C31.4213 28.4854 30.6212 28.9016 30.1686 29.856C29.4241 31.4262 30.5953 33.1176 32.4301 33.1205C38.0186 33.1295 43.6071 33.1238 49.1956 33.1238C54.8099 33.1238 60.4242 33.1251 66.0385 33.1227C67.2173 33.1222 68.0587 32.6001 68.4335 31.6554C69.0629 30.0687 67.9043 28.4955 66.084 28.4942Z" fill="white"/>
<path d="M30.11 52.4011C29.0977 51.8711 28.1173 52.0607 27.1841 52.991C24.3429 55.8232 21.4985 58.6523 18.6774 61.5045C18.2927 61.8935 18.0823 61.8831 17.72 61.4955C16.9303 60.6506 16.1028 59.8398 15.2691 59.0375C14.2625 58.0688 12.8824 58.0428 11.9483 58.947C10.9952 59.8696 11.0009 61.2977 12.0026 62.3171C13.4805 63.821 14.9733 65.3108 16.4787 66.7875C17.5278 67.8166 18.8673 67.8359 19.9074 66.8046C23.4865 63.2555 27.0463 59.6871 30.6106 56.1233C31.0842 55.6497 31.3312 55.0717 31.3449 54.3374C31.2658 53.5255 30.9168 52.8235 30.11 52.4011Z" fill="white"/>
</g>
<defs>
<clipPath id="clip0_158_640">
<rect width="79.1343" height="79.1343" fill="white" transform="translate(0.378906 0.308594)"/>
</clipPath>
</defs>
</svg>
