<svg width="25" height="20" viewBox="0 0 25 20" fill="none" xmlns="http://www.w3.org/2000/svg">
<circle cx="12.5" cy="10.5" r="23" stroke="#ABABAB"/>
<path d="M25 5.13721C25.0002 4.84039 24.9535 4.55086 24.8614 4.27035C24.4628 3.05661 23.387 2.25998 22.1231 2.25286C20.9163 2.24605 19.7094 2.24737 18.5025 2.25516C18.3372 2.25623 18.2951 2.20287 18.2806 2.0455C18.1768 0.915669 17.2233 0.0116801 16.1054 0.00718944C13.7114 -0.00242893 11.3174 -0.00197079 8.92347 0.00603063C7.75942 0.00992111 6.81561 0.883424 6.69247 2.05782C6.67427 2.23138 6.61334 2.2549 6.46348 2.25415C5.28967 2.24822 4.11581 2.2517 2.94197 2.25016C2.71687 2.24987 2.493 2.26406 2.27394 2.31384C0.944999 2.61579 0.00166221 3.80943 0.00100996 5.19656C-0.00085017 9.14231 0.00118872 13.0881 1.71857e-07 17.0338C-0.000289718 17.9858 0.366161 18.7606 1.09719 19.3502C1.52116 19.6921 1.99904 19.9248 2.5523 19.9613C2.67175 20.014 2.79898 19.9976 2.92256 19.9976C9.31949 19.9991 15.7164 19.9989 22.1133 19.9978C22.2374 19.9978 22.3639 20.0079 22.4837 19.9595C22.4837 19.9595 22.4837 19.9595 22.4837 19.9595C22.8695 19.9356 23.2225 19.8131 23.5443 19.5967C23.9989 19.3606 24.335 19.0043 24.5757 18.5512C24.868 18.1187 24.9954 17.632 24.9973 17.116C25.0031 15.571 24.9965 14.026 24.9967 12.4809C24.9969 10.033 24.9985 7.58512 25 5.13721ZM16.9138 10.7129C16.9139 10.7142 16.9141 10.7156 16.9142 10.717C16.9163 10.738 16.9179 10.7592 16.9197 10.7803C17.0155 12.036 16.5865 13.3202 15.6308 14.296C13.8871 16.0764 11.1055 16.0659 9.32541 14.2722C9.0063 13.9507 8.74697 13.5905 8.54713 13.2058C8.23956 12.6005 8.06504 11.9161 8.06334 11.1919C8.05737 8.65935 10.0127 6.65368 12.4959 6.64518C14.8155 6.63723 16.6826 8.39624 16.9138 10.7129Z" fill="#B1B1B1"/>
</svg>
