<?xml version="1.0" encoding="utf-8"?>
<!-- Generator: Adobe Illustrator 22.0.1, SVG Export Plug-In . SVG Version: 6.00 Build 0)  -->
<svg version="1.1" id="Слой_1" xmlns="http://www.w3.org/2000/svg" xmlns:xlink="http://www.w3.org/1999/xlink" x="0px" y="0px"
	 viewBox="0 0 518 488" style="enable-background:new 0 0 518 488;" xml:space="preserve">
<style type="text/css">
	.st0{fill:#2BA0E3;}
	.st1{fill:#E0E0E0;}
	.st2{fill:#2DADF6;}
	.st3{fill:#1B9EE0;}
	.st4{fill:#2799DC;}
	.st5{fill:#1F90C9;}
	.st6{fill:#24A4EF;}
	.st7{fill:#E6E6E6;}
	.st8{fill:#1593D1;}
	.st9{fill:#259FE6;}
	.st10{fill:#33B0F7;}
	.st11{fill:#2BA8F1;}
	.st12{fill:#29A1E7;}
	.st13{fill:#FFFFFF;}
	.st14{fill:#2BA2E8;}
	.st15{fill:#24A3EF;}
	.st16{fill:#E2BD9C;}
	.st17{fill:#407BFF;}
	.st18{opacity:0.6;fill:#FFFFFF;enable-background:new    ;}
	.st19{fill:#263238;}
	.st20{opacity:0.2;enable-background:new    ;}
	.st21{fill:#F5F5F5;}
	.st22{fill:#B55B52;}
	.st23{fill:#B2937B;}
	.st24{opacity:0.2;fill:#407BFF;enable-background:new    ;}
	.st25{fill:#EAEAEA;}
	.st26{opacity:0.2;fill:#FFFFFF;enable-background:new    ;}
	.st27{opacity:0.4;fill:#FFFFFF;enable-background:new    ;}
</style>
<g>
	<g>
		<path class="st0" d="M94.2,116.4H14.5v118.3h79.7V116.4z"/>
		<path class="st1" d="M94.2,234.7h1.3V116.4h-1.3V234.7z"/>
		<path class="st2" d="M89.7,230.2V120.9H19v109.4H89.7z"/>
		<path class="st3" d="M67.7,166.6c7.4-7.3,7.4-19.3,0-26.6s-19.3-7.3-26.7,0c-7.4,7.3-7.4,19.3,0,26.6S60.3,173.9,67.7,166.6z"/>
		<path class="st3" d="M77.6,183H31v4.8h46.6V183z"/>
		<path class="st3" d="M77.6,195.6H31v4.8h46.6V195.6z"/>
		<path class="st3" d="M77.6,208.2H31v4.8h46.6V208.2z"/>
		<path class="st0" d="M194.3,84.1h-79.7v118.3h79.7V84.1z"/>
		<path class="st1" d="M194.3,202.4h1.3V84.1h-1.3V202.4z"/>
		<path class="st2" d="M189.8,197.9V88.5h-70.7v109.4H189.8z"/>
		<path class="st3" d="M172.9,125.3c2.4-10.1-3.9-20.3-14-22.6c-10.2-2.4-20.3,3.9-22.7,14c-2.4,10.1,3.9,20.3,14,22.6
			C160.3,141.6,170.5,135.4,172.9,125.3z"/>
		<path class="st3" d="M177.8,150.6h-46.6v4.8h46.6V150.6z"/>
		<path class="st3" d="M177.8,163.3h-46.6v4.8h46.6V163.3z"/>
		<path class="st3" d="M177.8,175.9h-46.6v4.8h46.6V175.9z"/>
		<path class="st4" d="M475.3,251.7H127.1v3.7h348.2V251.7z"/>
		<path class="st5" d="M475.3,255.4h28.2v-3.7h-28.2V255.4z"/>
		<path class="st6" d="M475.3,255.4H131.8v172.5h343.5V255.4z"/>
		<path class="st7" d="M299.7,290.5h-1.9v137.4h1.9V290.5z"/>
		<path class="st8" d="M207.9,393.8v-1.9h-76.1v1.9H207.9z"/>
		<path class="st8" d="M207.9,359.7v-1.9h-76.1v1.9H207.9z"/>
		<path class="st8" d="M207.9,325.5v-1.9h-76.1v1.9H207.9z"/>
		<path class="st8" d="M475.3,291.4v-1.9H131.9v1.9H475.3z"/>
		<path class="st9" d="M475.3,427.9H500V255.4h-24.7V427.9z"/>
		<path class="st10" d="M481.1,21.1H359.5v172.5h121.6V21.1z"/>
		<path class="st5" d="M482.4,23.1H358.2c-1.1,0-2.1-0.9-2.1-2.1c0-1.1,0.9-2.1,2.1-2.1h124.2c1.1,0,2.1,0.9,2.1,2.1
			C484.5,22.2,483.6,23.1,482.4,23.1z"/>
		<path class="st5" d="M482.4,195.6H358.2c-1.1,0-2.1-0.9-2.1-2.1c0-1.1,0.9-2.1,2.1-2.1h124.2c1.1,0,2.1,0.9,2.1,2.1
			C484.5,194.7,483.6,195.6,482.4,195.6z"/>
		<path class="st3" d="M424.9,120.2h-9.1c-7.8,0-14.1-6.3-14.1-14.1V77.7c0-7.7,6.4-14.1,14.1-14.1h9.1c7.8,0,14.1,6.3,14.1,14.1
			v28.4C439,113.9,432.7,120.2,424.9,120.2z"/>
		<path class="st3" d="M409.6,177.7c-4.4,0-8-3.6-8-8v-60.3c0-4.4,3.6-8,8-8c4.4,0,8,3.6,8,8v60.3
			C417.7,174.1,414.1,177.7,409.6,177.7z"/>
		<path class="st3" d="M394,116.1L394,116.1c-2.6,0-4.8-2.1-4.8-4.8v-36c0-2.6,2.2-4.8,4.8-4.8h0c2.6,0,4.8,2.1,4.8,4.8v36
			C398.8,113.9,396.6,116.1,394,116.1z"/>
		<path class="st3" d="M446.7,116.1c-2.6,0-4.8-2.1-4.8-4.8v-36c0-2.6,2.2-4.8,4.8-4.8c2.6,0,4.8,2.1,4.8,4.8v36
			C451.4,113.9,449.3,116.1,446.7,116.1z"/>
		<path class="st3" d="M431,177.7c-4.4,0-8-3.6-8-8v-60.3c0-4.4,3.6-8,8-8c4.4,0,8,3.6,8,8v60.3C439,174.1,435.4,177.7,431,177.7z"
			/>
		<path class="st3" d="M428.7,54.9c4.6-4.6,4.6-12,0-16.6c-4.6-4.6-12.1-4.6-16.7,0s-4.6,12,0,16.6S424.1,59.5,428.7,54.9z"/>
		<path class="st11" d="M434.2,218h-56v33.7h56V218z"/>
		<path class="st12" d="M434.2,251.7H448V218h-13.8V251.7z"/>
		<path class="st13" d="M416.9,231.6h-7.5v-7.4H403v7.4h-7.5v6.4h7.5v7.4h6.5V238h7.5V231.6z"/>
		<path class="st14" d="M329.3,251.7h-5.3v-59.6c0-11.1-9.1-20.1-20.2-20.1s-20.2,9-20.2,20.1h-5.3c0-14,11.5-25.4,25.5-25.4
			c14.1,0,25.5,11.4,25.5,25.4V251.7z"/>
		<path class="st14" d="M339.2,243h-5.3v8.7h5.3V243z"/>
		<path class="st4" d="M169.3,248.6h-5.3v3.1h5.3V248.6z"/>
		<path class="st4" d="M159.8,248.6h-5.3v3.1h5.3V248.6z"/>
		<path class="st15" d="M109.1,330.6H39.6v97.3h69.6V330.6z"/>
		<path class="st8" d="M106.4,328.1H42.3v2.4h64.1V328.1z"/>
		<path class="st15" d="M61.6,306.2h25.5c12.2,0,22,9.8,22,22H39.6C39.6,316,49.4,306.2,61.6,306.2z"/>
		<path class="st3" d="M48.8,417.2h-7.4c-5.9,0-10.7,4.8-10.7,10.7h28.8C59.5,422,54.7,417.2,48.8,417.2z"/>
		<path class="st3" d="M259,488c143,0,259-6.7,259-15.1c0-8.3-116-15.1-259-15.1S0,464.6,0,472.9C0,481.3,116,488,259,488z"/>
	</g>
</g>
<g>
	<g>
		<path class="st16" d="M136.3,103l-8.6-10.5l-12,7.5c0,0,5.5,5.9,12.2,14.1L136.3,103z"/>
		<path class="st17" d="M243.6,103.8c-0.5,1.1-0.8,1.7-1.3,2.5l-1.2,2.3c-0.8,1.5-1.6,3-2.5,4.4c-1.7,2.9-3.4,5.8-5.3,8.6
			c-3.7,5.6-7.6,11.1-12.2,16.4c-4.5,5.3-9.6,10.4-15.7,14.9c-3.1,2.3-6.4,4.4-10.2,6.2l-2.9,1.3l-3,1.1c-1,0.4-2.1,0.6-3.1,0.9
			l-0.8,0.2c-0.2,0.1-0.8,0.2-1.1,0.3c-0.8,0.2-1.6,0.3-2.4,0.4c-3.2,0.3-6.1,0.1-8.7-0.4c-2.5-0.5-4.8-1.2-6.8-2
			c-4.1-1.6-7.4-3.6-10.5-5.6c-6.2-4.1-11.3-8.5-16.2-13c-4.9-4.5-9.4-9.2-13.7-14c-2.2-2.4-4.3-4.8-6.4-7.2
			c-2.1-2.5-4.1-4.8-6.2-7.6l21-16.3c1.6,2.1,3.6,4.4,5.5,6.6c1.9,2.2,3.8,4.4,5.8,6.5c4,4.3,8.1,8.4,12.2,12.1
			c4.2,3.7,8.5,7.2,12.7,9.8c2.1,1.3,4.1,2.3,5.8,2.9c1.6,0.6,2.9,0.6,2.5,0.5c0,0-0.1,0-0.2,0c0,0-0.2,0,0,0l0.3-0.1
			c0.4-0.2,0.8-0.3,1.3-0.4l1.3-0.5l1.3-0.7c1.8-1,3.6-2.2,5.4-3.6c3.6-2.9,7.2-6.7,10.4-10.9c3.3-4.2,6.3-8.8,9.1-13.6
			c1.4-2.4,2.7-4.9,3.9-7.4c0.6-1.2,1.2-2.5,1.8-3.7l0.8-1.9c0.2-0.6,0.6-1.3,0.7-1.6L243.6,103.8z"/>
		<path class="st13" d="M243.6,103.8c-0.5,1.1-0.8,1.7-1.3,2.5l-1.2,2.3c-0.8,1.5-1.6,3-2.5,4.4c-1.7,2.9-3.4,5.8-5.3,8.6
			c-3.7,5.6-7.6,11.1-12.2,16.4c-4.5,5.3-9.6,10.4-15.7,14.9c-3.1,2.3-6.4,4.4-10.2,6.2l-2.9,1.3l-3,1.1c-1,0.4-2.1,0.6-3.1,0.9
			l-0.8,0.2c-0.2,0.1-0.8,0.2-1.1,0.3c-0.8,0.2-1.6,0.3-2.4,0.4c-3.2,0.3-6.1,0.1-8.7-0.4c-2.5-0.5-4.8-1.2-6.8-2
			c-4.1-1.6-7.4-3.6-10.5-5.6c-6.2-4.1-11.3-8.5-16.2-13c-4.9-4.5-9.4-9.2-13.7-14c-2.2-2.4-4.3-4.8-6.4-7.2
			c-2.1-2.5-4.1-4.8-6.2-7.6l21-16.3c1.6,2.1,3.6,4.4,5.5,6.6c1.9,2.2,3.8,4.4,5.8,6.5c4,4.3,8.1,8.4,12.2,12.1
			c4.2,3.7,8.5,7.2,12.7,9.8c2.1,1.3,4.1,2.3,5.8,2.9c1.6,0.6,2.9,0.6,2.5,0.5c0,0-0.1,0-0.2,0c0,0-0.2,0,0,0l0.3-0.1
			c0.4-0.2,0.8-0.3,1.3-0.4l1.3-0.5l1.3-0.7c1.8-1,3.6-2.2,5.4-3.6c3.6-2.9,7.2-6.7,10.4-10.9c3.3-4.2,6.3-8.8,9.1-13.6
			c1.4-2.4,2.7-4.9,3.9-7.4c0.6-1.2,1.2-2.5,1.8-3.7l0.8-1.9c0.2-0.6,0.6-1.3,0.7-1.6L243.6,103.8z"/>
		<path class="st17" d="M234.4,369.4h61.2l-18.2-78.7h-30L234.4,369.4z"/>
		<path class="st18" d="M234.4,369.4h61.2l-18.2-78.7h-30L234.4,369.4z"/>
		<path class="st13" d="M231.8,452.1h-15.6l-0.7-36.1h15.6L231.8,452.1z"/>
		<path class="st13" d="M318.2,452.1h-15.6l-7-36.1h15.6L318.2,452.1z"/>
		<path class="st19" d="M301.6,450.3h17.5c0.6,0,1.2,0.4,1.3,1.1l2.7,13.8c0.3,1.4-0.9,2.8-2.4,2.8c-6.1-0.1-9.1-0.5-16.8-0.5
			c-4.7,0-14.5,0.5-21.1,0.5c-6.4,0-7.2-6.5-4.5-7.1c12.1-2.6,16.7-6.2,20.6-9.7C299.7,450.6,300.6,450.3,301.6,450.3z"/>
		<path class="st19" d="M216.4,450.3h17c0.6,0,1.2,0.4,1.3,1.1l2.7,13.8c0.3,1.4-0.8,2.8-2.3,2.8c-6.1-0.1-15-0.5-22.7-0.5
			c-9,0-9.8,0.5-20.3,0.5c-6.4,0-8-6.5-5.3-7.1c12.3-2.7,15.1-3,25.8-9.4C213.8,450.8,215.1,450.3,216.4,450.3z"/>
		<path class="st16" d="M121.8,88.9l-10.1-0.1l-1.9,13c0,0,9.9,2.1,19.1-1.9l-0.2-4.2C128.6,91.8,125.6,88.9,121.8,88.9z"/>
		<path class="st16" d="M96,89.3l1.9,8.2l11.9,4.2l1.9-13L96,89.3z"/>
		<path class="st20" d="M215.6,416l0.3,18.6h15.6l-0.3-18.6H215.6z"/>
		<path class="st20" d="M311.3,416h-15.6l3.6,18.6h15.6L311.3,416z"/>
		<path class="st21" d="M217.8,94.2c-4.3,16.5-12.1,58.2-3.6,124.5h83.4c0.8-11.6-4.5-64.1,4.9-118.8c1.6-9.4-4.9-18.3-14.4-19.3
			c-3.2-0.4-6.7-0.7-10.1-0.8c-10.6-0.5-25.5,0.3-34.9,1.1c-5.5,0.5-10.7,1.6-14.6,2.7C223.2,84.9,219.2,89,217.8,94.2z"/>
		<path class="st16" d="M274.2,46.5c-2.5,11.4-4,25.5,3.8,33.1c0,0-4.9,11.6-26.1,11.6c-19.4,0-9.4-11.6-9.4-11.6
			c12.8-3,12.5-18.8,10.5-27.6L274.2,46.5z"/>
		<path class="st17" d="M250.9,89.6l-4.6,5.1c-0.3,0.4-0.4,0.9-0.3,1.3l1.5,4.5c0.2,0.5,0.6,0.9,1.2,0.9l4.9,0.2
			c0.5,0,0.9-0.2,1.2-0.6l3-4.3c0.3-0.5,0.3-1.2-0.1-1.6l-4.8-5.4C252.4,89,251.5,89,250.9,89.6z"/>
		<path class="st17" d="M249.8,101.3c0,0-7.6,55.8-7.8,65.5c-0.2,13.3,4.3,27.1,4.3,27.1s5.2-9.9,6.1-27.5
			c0.9-17.4-0.2-55.2,0.2-65.1H249.8L249.8,101.3z"/>
		<path class="st20" d="M253,52c1.2,5.2,1.8,12.7-0.5,18.7c1.5,0.7,7.8-1.7,10.4-3.4c5.8-3.7,8-7.3,10.1-14.9c0.3-2,0.7-4,1.1-5.9
			L253,52z"/>
		<path class="st22" d="M233.3,41c1.5,3.9,4.6,6.7,7.8,7.9c4.7,1.9,7.8-2.2,7-7.1c-0.7-4.3-3.9-10.6-8.9-10.5
			C234.1,31.5,231.6,36.5,233.3,41z"/>
		<path class="st23" d="M233.3,41c1.5,3.9,4.6,6.7,7.8,7.9c4.7,1.9,7.8-2.2,7-7.1c-0.7-4.3-3.9-10.6-8.9-10.5
			C234.1,31.5,231.6,36.5,233.3,41z"/>
		<path class="st19" d="M252.5,23.9c-0.9,6.7-5.1,11.6-9.3,11.1c-4.2-0.6-7-6.4-6.1-13.1c0.9-6.7,5.1-11.6,9.3-11.1
			C250.7,11.3,253.4,17.2,252.5,23.9z"/>
		<path class="st16" d="M281.6,31.7c-3.8,15.1-5.3,24.2-14.4,30.7c-13.7,9.9-31-0.3-31.8-16.2c-0.7-14.3,5.7-36.6,21.6-40.2
			C272.8,2.5,285.4,16.6,281.6,31.7z"/>
		<path class="st19" d="M256.5,0.8c-9.1,2-19.1,9.3-10.5,14.7c8.7,5.4,28.2,6.2,28.2,6.2s-6.4,15.1,2.4,23
			c2.9-1.5-3.3,11.8-3.3,11.8s4.5-1.2,7.6-6.4c5.3-1.3,20.9-26.4,10.5-33.6C289.3,1.8,268.6-1.8,256.5,0.8z"/>
		<path class="st13" d="M278.4,40.9c-0.1,0-0.1,0-0.2,0l-13.7-6.2c-0.2-0.1-0.4-0.4-0.2-0.6c0.1-0.2,0.4-0.4,0.6-0.2l13.7,6.2
			c0.2,0.1,0.4,0.4,0.2,0.6C278.7,40.8,278.6,40.9,278.4,40.9z"/>
		<path class="st16" d="M285.3,49.7c-2.8,3.2-6.8,4.7-10.2,4.9c-5.1,0.3-6.5-4.6-4-8.9c2.2-3.9,7.6-8.6,12.2-6.9
			C287.9,40.6,288.5,46.1,285.3,49.7z"/>
		<path class="st17" d="M214.2,218.6c0,0-9.9,79.3-9.4,126.8c0.6,49.4,5.4,85.6,5.4,85.6h26.4c0,0,13.3-33.3,15.7-81.8
			c2.6-52.9,16.7-130.6,16.7-130.6H214.2z"/>
		<path class="st19" d="M237.9,419.4c0.1,0,0.5,12.2,0.5,12.2h-30.4l-1.7-13.3L237.9,419.4z"/>
		<path class="st20" d="M249.9,249.5c-0.9,57.8,1.7,92.9,8.2,121.1c1.6-27.6,4.2-64,6.5-94.3L249.9,249.5z"/>
		<path class="st17" d="M243.8,218.6c0,0,9.8,81.9,18.4,126.5c9.4,48.8,29.8,85.9,29.8,85.9h28.6c0,0-6.8-33.1-11.7-81.5
			c-5.3-52.5-11.3-130.9-11.3-130.9H243.8z"/>
		<path class="st19" d="M319.9,420c0.1,0,2.1,11.5,2.1,11.5h-31.4l-3.4-12.7L319.9,420z"/>
		<path class="st19" d="M257.9,32.1c-0.2,1.2-1.1,2.1-1.9,2c-0.8-0.1-1.3-1.3-1-2.5c0.2-1.2,1.1-2.1,1.9-2
			C257.7,29.8,258.1,30.9,257.9,32.1z"/>
		<path class="st19" d="M242.6,28.5c-0.2,1.2-1.1,2.1-1.9,2c-0.8-0.1-1.3-1.3-1-2.5c0.2-1.2,1.1-2.1,1.9-2
			C242.4,26.2,242.9,27.3,242.6,28.5z"/>
		<path class="st23" d="M249,31.7c0,0-4.9,6.2-9,8.7c1.5,2.6,5.4,2.8,5.4,2.8L249,31.7z"/>
		<path class="st19" d="M249,47c-0.2,0-0.3-0.2-0.3-0.4c0-0.2,0.2-0.3,0.4-0.3c5.4,0.9,8.6-2.5,8.7-2.5c0.1-0.1,0.4-0.2,0.5,0
			c0.1,0.1,0.2,0.4,0,0.5C258.2,44.4,254.8,47.9,249,47z"/>
		<path class="st19" d="M265.3,28.1c-0.2-0.1-0.4-0.2-0.5-0.4c-1.2-3-3.8-3.6-3.9-3.6c-0.4-0.1-0.7-0.5-0.6-0.9
			c0.1-0.4,0.5-0.7,0.9-0.6c0.1,0,3.5,0.7,4.9,4.5c0.1,0.4,0,0.8-0.4,1C265.6,28.1,265.5,28.1,265.3,28.1z"/>
		<path class="st19" d="M238.7,22.6c-0.1,0-0.2-0.1-0.3-0.1c-0.3-0.3-0.3-0.7-0.1-1c2.6-3.2,6-2.9,6.1-2.9c0.4,0,0.7,0.4,0.6,0.8
			c-0.1,0.4-0.4,0.7-0.8,0.7c-0.1,0-2.7-0.2-4.8,2.3C239.3,22.5,239,22.6,238.7,22.6z"/>
		<path class="st13" d="M257.6,41c-0.4,0-0.8,0-1.1-0.1c-1.8-0.3-3.3-1.3-4.4-2.9c-1.3-1.8-1.8-4.3-1.3-6.6c0.8-4.5,4.8-7.7,8.7-7
			c1.8,0.3,3.3,1.3,4.4,2.9c1.3,1.8,1.8,4.3,1.3,6.6c0,0,0,0,0,0C264.5,38.1,261.2,41,257.6,41z M258.4,25.3c-3.1,0-6,2.6-6.6,6.3
			c-0.4,2.1,0,4.3,1.2,5.9c0.9,1.3,2.3,2.2,3.8,2.5c3.5,0.6,6.9-2.2,7.6-6.2c0.4-2.1,0-4.3-1.2-5.9c-0.9-1.3-2.3-2.2-3.8-2.5
			C259,25.3,258.7,25.3,258.4,25.3z M264.8,33.9L264.8,33.9L264.8,33.9z"/>
		<path class="st13" d="M251.3,32c-0.2,0-0.3-0.1-0.4-0.2c-1.5-2.2-3.4-1.5-3.5-1.4c-0.2,0.1-0.5,0-0.6-0.3c-0.1-0.2,0-0.5,0.2-0.6
			c0,0,2.7-1.2,4.7,1.8c0.1,0.2,0.1,0.5-0.1,0.7C251.5,31.9,251.4,32,251.3,32z"/>
		<path class="st13" d="M240.1,37c-0.4,0-0.8,0-1.1-0.1c-1.8-0.3-3.3-1.3-4.4-2.9c-1.3-1.8-1.8-4.3-1.3-6.6c0.8-4.5,4.8-7.7,8.7-7
			c1.8,0.3,3.3,1.3,4.4,2.9c1.3,1.8,1.8,4.3,1.3,6.6C246.9,34.1,243.6,37,240.1,37z M240.8,21.3c-3.1,0-6,2.6-6.6,6.3
			c-0.4,2.1,0,4.3,1.2,5.9c0.9,1.3,2.3,2.2,3.8,2.5c3.5,0.6,6.9-2.2,7.6-6.2c0.4-2.1,0-4.3-1.2-5.9c-0.9-1.3-2.3-2.2-3.8-2.5
			C241.4,21.3,241.1,21.3,240.8,21.3z M247.2,29.9L247.2,29.9L247.2,29.9z"/>
		<path class="st17" d="M296.3,453c-1.2,0-2.3-0.2-3-0.8c-0.5-0.5-0.8-1.1-0.7-2c0.1-0.6,0.4-0.9,0.7-1c1.7-0.9,6.7,2.2,7.3,2.6
			c0.1,0.1,0.2,0.2,0.2,0.4c0,0.1-0.1,0.3-0.3,0.3C299.3,452.7,297.8,453,296.3,453z M294.1,449.8c-0.2,0-0.4,0-0.5,0.1
			c-0.1,0.1-0.2,0.1-0.2,0.4c-0.1,0.6,0.1,1,0.5,1.3c0.8,0.7,2.9,0.8,5.5,0.3C297.6,450.9,295.3,449.8,294.1,449.8z"/>
		<path class="st17" d="M300.3,452.5c-0.1,0-0.1,0-0.2,0c-1.6-0.9-4.6-4.3-4.3-6c0.1-0.3,0.3-0.9,1.2-1c0.6-0.1,1.1,0.1,1.6,0.5
			c1.8,1.5,2,6,2,6.2c0,0.1-0.1,0.3-0.2,0.3C300.5,452.4,300.4,452.5,300.3,452.5z M297.3,446.1c-0.1,0-0.1,0-0.2,0
			c-0.5,0.1-0.5,0.3-0.5,0.4c-0.2,1,1.7,3.6,3.3,4.8c-0.1-1.3-0.6-3.9-1.7-4.9C297.9,446.3,297.6,446.1,297.3,446.1z"/>
		<path class="st17" d="M209.8,453c-1.5,0-3-0.2-3.8-1c-0.5-0.5-0.7-1.1-0.6-1.8c0-0.4,0.3-0.8,0.6-1c1.9-1.1,8.1,2.1,8.8,2.5
			c0.1,0.1,0.2,0.2,0.2,0.4c0,0.2-0.1,0.3-0.3,0.3C213.4,452.7,211.6,453,209.8,453z M207.1,449.8c-0.3,0-0.5,0-0.7,0.1
			c-0.1,0.1-0.2,0.2-0.2,0.4c0,0.5,0.1,0.9,0.4,1.2c0.9,0.9,3.5,1,7,0.4C211.4,450.9,208.6,449.8,207.1,449.8z"/>
		<path class="st17" d="M214.7,452.5c-0.1,0-0.1,0-0.2,0c-1.9-0.8-5.5-4.2-5.2-6c0.1-0.4,0.4-0.9,1.4-1c0.7-0.1,1.4,0.1,2,0.6
			c1.9,1.6,2.3,5.8,2.3,6c0,0.1-0.1,0.3-0.2,0.3C214.8,452.4,214.8,452.5,214.7,452.5z M211,446.1c-0.1,0-0.1,0-0.2,0
			c-0.7,0.1-0.7,0.3-0.7,0.4c-0.2,1.1,2.3,3.7,4.2,4.9c-0.2-1.2-0.7-3.7-1.9-4.8C211.9,446.3,211.5,446.1,211,446.1z"/>
		<path class="st17" d="M278.9,78.6l18,2.2c6.2,0.7,10.8,6.1,10.6,12.3c-0.9,28-4.6,66.6-1.7,125.6c1.5,29.7,17.3,154,17.3,154
			l-41,7.2c0,0-24.2-49.9-35.9-153.2c-5-44.3-0.3-84.5-0.3-84.5L278.9,78.6z"/>
		<path class="st13" d="M278.9,78.6l18,2.2c6.2,0.7,10.8,6.1,10.6,12.3c-0.9,28-4.6,66.6-1.7,125.6c1.5,29.7,17.3,154,17.3,154
			l-41,7.2c0,0-24.2-49.9-35.9-153.2c-5-44.3-0.3-84.5-0.3-84.5L278.9,78.6z"/>
		<path class="st24" d="M293.7,114.4c0,4.2,3.2,25.6,11.2,40.4c0.2-10.1,0.6-19.3,1-27.7L293.7,114.4z"/>
		<path class="st24" d="M216.2,110.6c-2.3,4.4-9,23.1-12.4,43.6c1.5-1.1,3-2.2,4.4-3.3c5.5-4.5,10.2-9.4,14.4-14.5
			c0.3-0.3,0.5-0.7,0.8-1L216.2,110.6z"/>
		<path class="st17" d="M240.9,80.4l-10.6,1.3c-10.6,1.3-18.6,10-19,20.6c-1.2,31.5-3.7,94.4-5,116.3c-1.8,29.7-5.5,154-5.5,154
			l25.5,4.5c0,0,11.4-51.7,20-150.5c3.7-42.2,1.6-88.1,1.6-88.1L240.9,80.4z"/>
		<path class="st13" d="M240.9,80.4l-10.6,1.3c-10.6,1.3-18.6,10-19,20.6c-1.2,31.5-3.7,94.4-5,116.3c-1.8,29.7-5.5,154-5.5,154
			l25.5,4.5c0,0,11.4-51.7,20-150.5c3.7-42.2,1.6-88.1,1.6-88.1L240.9,80.4z"/>
		<path class="st25" d="M251.9,89.2c3.7,5.7,5.7,12.2,5.7,12.2s24.9-8.5,24-22.2c0,0-3.7-2.2-6.1-4.1
			C275.5,75,274.4,83.7,251.9,89.2z"/>
		<path class="st25" d="M251.9,89.2c-4.9,5.7-7.1,10.8-7.1,10.8s-10.2-6.8-6.3-20.4c0,0,3.4-1.4,6.8-2.2
			C245.4,77.5,243.6,86.2,251.9,89.2z"/>
		<path class="st24" d="M277.8,226.9l28.5,24.5l-19.5-9.5L277.8,226.9z"/>
		<path class="st17" d="M306.4,87.9c1.2,1.7,2.1,3,3.2,4.5l2.9,4.4c1.9,2.9,3.7,5.9,5.5,8.9c3.6,6,7,12.1,10.1,18.5
			c3.1,6.4,5.9,13.1,8.2,20.3c1.1,3.6,2.1,7.4,2.8,11.4c0.7,4,1.1,8.3,1,12.6c-0.3,8.5-2.1,16.2-4.6,23.4
			c-2.5,7.1-5.6,13.7-8.9,20.1c-3.4,6.3-7.1,12.3-11.1,18c-2,2.9-4,5.7-6.1,8.5c-1,1.4-2.1,2.8-3.2,4.2c-1.1,1.4-2.1,2.7-3.5,4.3
			l-20-17.4c0.8-0.9,1.8-2.2,2.7-3.4l2.8-3.6c1.8-2.5,3.6-5,5.4-7.5c3.4-5.1,6.6-10.4,9.3-15.7c2.8-5.3,5.1-10.7,6.8-16.1
			c1.7-5.3,2.7-10.6,2.7-15.2c0-4.4-1.2-9.4-3.1-14.7c-1.9-5.3-4.4-10.7-7.2-15.9c-2.9-5.3-6.1-10.6-9.5-15.7
			c-1.7-2.6-3.5-5.1-5.3-7.6l-2.8-3.7c-0.9-1.2-1.9-2.5-2.7-3.4L306.4,87.9z"/>
		<path class="st13" d="M306.4,87.9c1.2,1.7,2.1,3,3.2,4.5l2.9,4.4c1.9,2.9,3.7,5.9,5.5,8.9c3.6,6,7,12.1,10.1,18.5
			c3.1,6.4,5.9,13.1,8.2,20.3c1.1,3.6,2.1,7.4,2.8,11.4c0.7,4,1.1,8.3,1,12.6c-0.3,8.5-2.1,16.2-4.6,23.4
			c-2.5,7.1-5.6,13.7-8.9,20.1c-3.4,6.3-7.1,12.3-11.1,18c-2,2.9-4,5.7-6.1,8.5c-1,1.4-2.1,2.8-3.2,4.2c-1.1,1.4-2.1,2.7-3.5,4.3
			l-20-17.4c0.8-0.9,1.8-2.2,2.7-3.4l2.8-3.6c1.8-2.5,3.6-5,5.4-7.5c3.4-5.1,6.6-10.4,9.3-15.7c2.8-5.3,5.1-10.7,6.8-16.1
			c1.7-5.3,2.7-10.6,2.7-15.2c0-4.4-1.2-9.4-3.1-14.7c-1.9-5.3-4.4-10.7-7.2-15.9c-2.9-5.3-6.1-10.6-9.5-15.7
			c-1.7-2.6-3.5-5.1-5.3-7.6l-2.8-3.7c-0.9-1.2-1.9-2.5-2.7-3.4L306.4,87.9z"/>
		<path class="st19" d="M280.9,120.8c-1.2,2.9-4.6,4.6-7.6,3.9c-3-0.7-4.5-3.7-3.3-6.6c1.2-2.9,4.6-4.6,7.6-3.9
			C280.5,114.9,282,117.9,280.9,120.8z"/>
		<path class="st26" d="M280.9,120.8c-1.2,2.9-4.6,4.6-7.6,3.9c-3-0.7-4.5-3.7-3.3-6.6c1.2-2.9,4.6-4.6,7.6-3.9
			C280.5,114.9,282,117.9,280.9,120.8z"/>
		<path class="st19" d="M274.6,117.8c-0.1,0-0.3,0-0.4-0.1c-0.3-0.2-0.4-0.7-0.2-1c14.1-19.6,10.1-37,10.1-37.2
			c-0.1-0.4,0.1-0.8,0.5-0.9c0.4-0.1,0.8,0.1,0.9,0.5c0,0.2,4.2,18.2-10.3,38.4C275.1,117.7,274.9,117.8,274.6,117.8z"/>
		<path class="st19" d="M225.5,107.9c-0.4,0-0.7-0.3-0.7-0.7c-1.5-19.2,8.7-26.3,9.1-26.6c0.3-0.2,0.8-0.1,1,0.2
			c0.2,0.3,0.1,0.8-0.2,1c-0.1,0.1-9.9,7-8.4,25.3C226.2,107.6,225.9,107.9,225.5,107.9C225.5,107.9,225.5,107.9,225.5,107.9z"/>
		<path class="st19" d="M278.8,120.3c-1.2,2.9-4.6,4.6-7.6,3.9c-3-0.7-4.5-3.7-3.3-6.6c1.2-2.9,4.6-4.6,7.6-3.9
			C278.5,114.4,280,117.4,278.8,120.3z"/>
		<path class="st27" d="M278.8,120.3c-1.2,2.9-4.6,4.6-7.6,3.9c-3-0.7-4.5-3.7-3.3-6.6c1.2-2.9,4.6-4.6,7.6-3.9
			C278.5,114.4,280,117.4,278.8,120.3z"/>
		<path class="st27" d="M275.6,119.2c-0.6,1.5-2.4,2.4-4,2c-1.6-0.4-2.4-1.9-1.7-3.5c0.6-1.5,2.4-2.4,4-2
			C275.5,116.2,276.2,117.7,275.6,119.2z"/>
		<path class="st19" d="M231.2,152.7c-0.4,0-0.7-0.3-0.7-0.7s0.3-0.7,0.7-0.7c2.9,0,5.3-2.3,5.5-5.2l1.4-24.7c0.2-3.6-1-6.9-3.4-9.5
			c-2.4-2.5-5.7-3.9-9.3-3.9c-7.5,0-13.9,6.1-14.3,13.5l-1.4,24.7c-0.1,1.4,0.4,2.6,1.3,3.6c0.9,1,2.2,1.5,3.5,1.5
			c0.4,0,0.7,0.3,0.7,0.7s-0.3,0.7-0.7,0.7c-1.8,0-3.4-0.7-4.6-1.9c-1.2-1.3-1.8-2.9-1.7-4.7l1.4-24.7c0.5-8.2,7.5-14.9,15.8-14.9
			c4,0,7.6,1.6,10.3,4.4c2.7,2.8,4,6.6,3.8,10.6l-1.4,24.7C238,149.8,234.9,152.7,231.2,152.7z"/>
		<path class="st19" d="M215.8,152c-0.1,1.2-0.7,2.1-1.3,2.1c-0.7,0-1.2-1-1.1-2.1c0.1-1.2,0.7-2.1,1.3-2.1
			C215.4,149.8,215.9,150.8,215.8,152z"/>
		<path class="st19" d="M232.5,152c-0.1,1.2-0.7,2.1-1.3,2.1c-0.7,0-1.2-1-1.1-2.1c0.1-1.2,0.7-2.1,1.3-2.1
			C232,149.8,232.5,150.8,232.5,152z"/>
	</g>
</g>
<path class="st13" d="M103.5,51l-0.5-0.3c-14.8-8.3-24-18.4-24-26.5c0-1.5,0-5.1,2.5-8.4c3.2-4.2,8.3-4.8,9.8-4.8
	c6.2-0.4,10.5,3.7,12.3,5.7c1.7-2,6-6.1,12.3-5.7c1.5,0.1,6.6,0.7,9.8,4.8v0c2.5,3.2,2.5,6.8,2.5,8.4c-0.1,8.1-9.3,18.2-24,26.5
	L103.5,51z"/>
</svg>
