<svg width="314" height="36" viewBox="0 0 314 36" fill="none" xmlns="http://www.w3.org/2000/svg">
<path d="M24.2856 9.81466H19.1074L17.2207 17.4181H22.5997V19.5129H16.6989L14.6918 27.5431H12.3636L14.4108 19.5129H6.82406L4.81698 27.5431H2.48877L4.53599 19.5129H0V17.4181H5.05783L6.94448 9.81466H1.72608V7.83621H7.46632L9.43325 0H11.7615L9.75438 7.83621H17.3411L19.3081 0H21.6363L19.6292 7.83621H24.2856V9.81466ZM14.9326 17.4181L16.8193 9.81466H9.23255L7.3459 17.4181H14.9326Z" fill="#019BDD"/>
<path d="M28.7689 27.5431V7.3319H39.2057C40.3832 7.3319 41.3733 7.57759 42.1762 8.06897C42.979 8.53448 43.5811 9.14224 43.9825 9.89224C44.4107 10.6422 44.6248 11.444 44.6248 12.2974C44.6248 13.3836 44.3572 14.3664 43.822 15.2457C43.2868 16.0991 42.5107 16.7457 41.4938 17.1853C42.698 17.5216 43.6748 18.1293 44.4241 19.0086C45.1734 19.8879 45.5481 20.9483 45.5481 22.1897C45.5481 23.2759 45.2671 24.2198 44.7051 25.0216C44.1699 25.8233 43.4206 26.444 42.4572 26.8836C41.5205 27.3233 40.4367 27.5431 39.2057 27.5431H28.7689ZM31.3781 25.6422H39.1254C39.8212 25.6422 40.4501 25.4741 41.0121 25.1379C41.6008 24.7759 42.0557 24.3103 42.3769 23.7414C42.7248 23.1724 42.8987 22.5776 42.8987 21.9569C42.8987 21.2845 42.7382 20.6767 42.417 20.1336C42.0959 19.5647 41.6677 19.1121 41.1325 18.7759C40.5973 18.4397 39.9818 18.2716 39.286 18.2716H31.3781V25.6422ZM31.3781 16.4483H38.4832C39.1789 16.4483 39.7944 16.2672 40.3297 15.9052C40.8649 15.5431 41.2797 15.0776 41.574 14.5086C41.8684 13.9397 42.0156 13.3448 42.0156 12.7241C42.0156 11.7931 41.6945 10.9784 41.0522 10.2802C40.4367 9.5819 39.6339 9.23276 38.6437 9.23276H31.3781V16.4483Z" fill="#019BDD"/>
<path d="M60.9687 27.931C59.2292 27.931 57.6637 27.4914 56.2721 26.6121C54.9073 25.7328 53.8235 24.6466 53.0206 23.3534V35.806H50.291V7.3319H52.7397V11.25C53.5693 9.98276 54.6798 8.96121 56.0714 8.18535C57.463 7.38362 58.9482 6.98276 60.5271 6.98276C61.9722 6.98276 63.2969 7.28017 64.5011 7.875C65.7054 8.44397 66.749 9.21983 67.6322 10.2026C68.5153 11.1853 69.1977 12.3103 69.6794 13.5776C70.1878 14.819 70.4421 16.1121 70.4421 17.4569C70.4421 19.3448 70.0406 21.0905 69.2378 22.694C68.4617 24.2716 67.3645 25.5388 65.9462 26.4957C64.5279 27.4526 62.8687 27.931 60.9687 27.931ZM60.206 25.6034C61.3567 25.6034 62.387 25.3836 63.2969 24.944C64.2068 24.4784 64.9828 23.8578 65.6251 23.0819C66.2941 22.306 66.8026 21.4397 67.1505 20.4828C67.4984 19.5 67.6723 18.4914 67.6723 17.4569C67.6723 16.3707 67.4716 15.3362 67.0702 14.3534C66.6955 13.3707 66.1469 12.5043 65.4244 11.7543C64.7018 11.0043 63.8722 10.4095 62.9356 9.96983C61.999 9.53017 60.982 9.31034 59.8848 9.31034C59.1891 9.31034 58.4665 9.43966 57.7172 9.69828C56.9679 9.9569 56.2454 10.3319 55.5496 10.8233C54.8805 11.2888 54.3186 11.819 53.8636 12.4138C53.4087 13.0086 53.1277 13.6422 53.0206 14.3147V20.5216C53.4488 21.4784 54.0242 22.3448 54.7467 23.1207C55.4693 23.8707 56.2989 24.4784 57.2355 24.944C58.1989 25.3836 59.1891 25.6034 60.206 25.6034Z" fill="#019BDD"/>
<path d="M73.5003 27.5431L79.7223 19.2802C78.3039 19.0733 77.1532 18.4784 76.2701 17.4957C75.4137 16.4871 74.9856 15.1164 74.9856 13.3836C74.9856 12.2198 75.2666 11.1853 75.8286 10.2802C76.3905 9.375 77.18 8.65086 78.1969 8.10776C79.2406 7.56466 80.4582 7.2931 81.8498 7.2931H89.8379V27.5431H87.1083V19.7069H82.4519L76.5511 27.5431H73.5003ZM81.8096 17.6897H87.1083V9.38793H82.2913C80.8998 9.38793 79.7892 9.77586 78.9596 10.5517C78.13 11.3017 77.7152 12.2586 77.7152 13.4224C77.7152 14.6121 78.0497 15.6207 78.7187 16.4483C79.4145 17.2759 80.4448 17.6897 81.8096 17.6897Z" fill="#019BDD"/>
<path d="M101.061 27.5431V9.69828H93.5943V7.3319H111.257V9.69828H103.79V27.5431H101.061Z" fill="#019BDD"/>
<path d="M117.26 36C116.805 36 116.337 35.9224 115.855 35.7672C115.4 35.6379 114.932 35.444 114.45 35.1853L115.454 33.3233C115.748 33.4784 116.016 33.6078 116.257 33.7112C116.524 33.8147 116.805 33.8664 117.1 33.8664C117.795 33.8664 118.451 33.5302 119.067 32.8578C119.682 32.1853 120.271 31.2026 120.833 29.9095L121.876 27.3879L112.564 7.3319H115.454L123.121 24.8276L130.186 7.3319H132.915L122.96 30.7241C122.425 31.9397 121.863 32.9353 121.274 33.7112C120.686 34.4871 120.057 35.056 119.388 35.4181C118.719 35.806 118.01 36 117.26 36Z" fill="#019BDD"/>
<path d="M144.975 27.8922C143.397 27.8922 141.965 27.5948 140.68 27C139.396 26.4052 138.299 25.6034 137.389 24.5948C136.479 23.5862 135.77 22.4612 135.261 21.2198C134.779 19.9526 134.539 18.6595 134.539 17.3405C134.539 16.0733 134.766 14.819 135.221 13.5776C135.676 12.3362 136.345 11.2241 137.228 10.2414C138.138 9.23276 139.249 8.44397 140.56 7.875C141.871 7.28017 143.37 6.98276 145.056 6.98276C147.063 6.98276 148.775 7.40948 150.194 8.26293C151.612 9.11638 152.683 10.2284 153.405 11.5991L151.318 12.6466C150.595 11.4052 149.685 10.5259 148.588 10.0086C147.518 9.46552 146.354 9.19397 145.096 9.19397C143.57 9.19397 142.246 9.5431 141.122 10.2414C140.025 10.9138 139.155 11.7931 138.513 12.8793C137.87 13.9655 137.482 15.1164 137.349 16.3319H147.103V18.194H137.349C137.456 19.5388 137.857 20.7931 138.553 21.9569C139.249 23.0948 140.158 24.0129 141.282 24.7112C142.433 25.3836 143.718 25.7198 145.136 25.7198C146.367 25.7198 147.571 25.4224 148.749 24.8276C149.953 24.2328 150.916 23.3147 151.639 22.0733L153.847 23.0431C153.044 24.5948 151.826 25.7974 150.194 26.6509C148.561 27.4784 146.822 27.8922 144.975 27.8922Z" fill="#019BDD"/>
<path d="M156 32.2371V25.1767H156.361C156.977 25.1767 157.539 24.9957 158.047 24.6336C158.556 24.2716 159.011 23.6379 159.412 22.7328C159.813 21.8276 160.134 20.5862 160.375 19.0086C160.616 17.4052 160.777 15.3879 160.857 12.9569L161.058 7.3319H174.666V25.1767H177.476V32.2371H175.027V27.5431H158.408V32.2371H156ZM160.496 25.1767H171.936V9.69828H163.506L163.386 13.1897C163.306 15.5948 163.132 17.6121 162.864 19.2414C162.623 20.8448 162.302 22.125 161.901 23.0819C161.526 24.0129 161.058 24.7112 160.496 25.1767Z" fill="#019BDD"/>
<path d="M190.525 27.931C189.026 27.931 187.635 27.6595 186.35 27.1164C185.092 26.5474 183.995 25.7845 183.058 24.8276C182.149 23.8448 181.439 22.7328 180.931 21.4914C180.422 20.2241 180.168 18.8922 180.168 17.4957C180.168 16.0474 180.422 14.7026 180.931 13.4612C181.439 12.194 182.162 11.0819 183.099 10.125C184.035 9.14224 185.132 8.37931 186.39 7.83621C187.675 7.26724 189.066 6.98276 190.565 6.98276C192.063 6.98276 193.442 7.26724 194.699 7.83621C195.957 8.37931 197.054 9.14224 197.991 10.125C198.928 11.0819 199.65 12.194 200.159 13.4612C200.667 14.7026 200.921 16.0474 200.921 17.4957C200.921 18.8922 200.667 20.2241 200.159 21.4914C199.65 22.7328 198.928 23.8448 197.991 24.8276C197.081 25.7845 195.984 26.5474 194.699 27.1164C193.442 27.6595 192.05 27.931 190.525 27.931ZM182.938 17.5345C182.938 19.0345 183.273 20.4052 183.942 21.6466C184.637 22.8621 185.561 23.8319 186.711 24.556C187.862 25.2543 189.133 25.6034 190.525 25.6034C191.916 25.6034 193.187 25.2414 194.338 24.5172C195.489 23.7931 196.412 22.8103 197.108 21.569C197.804 20.3017 198.152 18.931 198.152 17.4569C198.152 15.9569 197.804 14.5862 197.108 13.3448C196.412 12.1034 195.489 11.1207 194.338 10.3966C193.187 9.67241 191.916 9.31034 190.525 9.31034C189.133 9.31034 187.862 9.68534 186.711 10.4353C185.587 11.1853 184.677 12.181 183.982 13.4224C183.286 14.6379 182.938 16.0086 182.938 17.5345Z" fill="#019BDD"/>
<path d="M205.446 27.5431V7.3319H208.176V15.9828H211.307L218.332 7.3319H221.463L213.475 17.1466L222.466 27.5431H219.255L211.307 18.4267H208.176V27.5431H205.446Z" fill="#019BDD"/>
<path d="M225.94 29.9483V27.5431H241.234V29.9483H225.94Z" fill="#019BDD"/>
<path d="M255.915 27.931C254.39 27.931 252.985 27.6595 251.7 27.1164C250.443 26.5474 249.332 25.7716 248.369 24.7888C247.432 23.806 246.696 22.681 246.161 21.4138C245.652 20.1466 245.398 18.8017 245.398 17.3793C245.398 15.4655 245.84 13.7198 246.723 12.1422C247.606 10.5647 248.837 9.31034 250.416 8.37931C251.995 7.44828 253.814 6.98276 255.875 6.98276C257.829 6.98276 259.555 7.42241 261.053 8.30172C262.552 9.15517 263.663 10.319 264.385 11.7931L261.736 12.6078C261.147 11.5733 260.317 10.7716 259.247 10.2026C258.203 9.60776 257.039 9.31034 255.755 9.31034C254.363 9.31034 253.092 9.65948 251.941 10.3578C250.791 11.056 249.867 12.0129 249.171 13.2284C248.502 14.444 248.168 15.8276 248.168 17.3793C248.168 18.9052 248.516 20.2888 249.212 21.5302C249.907 22.7716 250.831 23.7672 251.981 24.5172C253.132 25.2414 254.403 25.6034 255.795 25.6034C256.705 25.6034 257.574 25.4483 258.404 25.1379C259.26 24.8276 259.996 24.4138 260.612 23.8966C261.254 23.3534 261.682 22.7716 261.896 22.1509L264.586 22.9267C264.211 23.8836 263.582 24.75 262.699 25.5259C261.843 26.2759 260.826 26.8707 259.648 27.3103C258.498 27.7241 257.253 27.931 255.915 27.931Z" fill="#019BDD"/>
<path d="M268.834 27.5431V7.3319H271.644L279.953 21.2586L288.303 7.3319H290.992V27.5431H288.383V11.2888L280.836 23.9353H279.07L271.443 11.2888V27.5431H268.834Z" fill="#019BDD"/>
<path d="M295.334 21.7241C295.334 20.4569 295.709 19.3707 296.458 18.4655C297.207 17.5345 298.238 16.8233 299.549 16.3319C300.887 15.8147 302.426 15.556 304.165 15.556C305.182 15.556 306.239 15.6336 307.336 15.7888C308.434 15.944 309.41 16.1767 310.267 16.4871V14.7802C310.267 13.0733 309.745 11.7155 308.701 10.7069C307.658 9.69828 306.213 9.19397 304.366 9.19397C303.242 9.19397 302.131 9.40086 301.034 9.81466C299.964 10.2026 298.84 10.7845 297.662 11.5603L296.619 9.69828C297.984 8.7931 299.322 8.12069 300.633 7.68103C301.944 7.21552 303.282 6.98276 304.647 6.98276C307.216 6.98276 309.25 7.69397 310.749 9.11638C312.247 10.5388 312.996 12.5043 312.996 15.0129V24.3621C312.996 24.7241 313.077 24.9957 313.237 25.1767C313.398 25.3319 313.652 25.4224 314 25.4483V27.5431C313.706 27.569 313.451 27.5948 313.237 27.6207C313.023 27.6466 312.863 27.6466 312.756 27.6207C312.087 27.5948 311.578 27.3879 311.23 27C310.882 26.6121 310.695 26.1983 310.668 25.7586L310.628 24.2845C309.691 25.4483 308.474 26.3534 306.975 27C305.477 27.6207 303.951 27.931 302.399 27.931C301.061 27.931 299.843 27.6595 298.746 27.1164C297.676 26.5474 296.833 25.7974 296.217 24.8664C295.629 23.9095 295.334 22.8621 295.334 21.7241ZM309.344 23.2759C309.638 22.9138 309.865 22.5647 310.026 22.2284C310.187 21.8922 310.267 21.5948 310.267 21.3362V18.3879C309.357 18.0517 308.407 17.7931 307.417 17.6121C306.453 17.431 305.477 17.3405 304.486 17.3405C302.533 17.3405 300.954 17.7155 299.75 18.4655C298.546 19.2155 297.943 20.2371 297.943 21.5302C297.943 22.2802 298.144 22.9914 298.546 23.6638C298.947 24.3103 299.536 24.8534 300.312 25.2931C301.088 25.7069 301.998 25.9138 303.041 25.9138C304.353 25.9138 305.57 25.6681 306.694 25.1767C307.845 24.6853 308.728 24.0517 309.344 23.2759Z" fill="#019BDD"/>
</svg>
