<svg width="499" height="248" viewBox="0 0 499 248" fill="none" xmlns="http://www.w3.org/2000/svg">
<path d="M118.005 248L115.682 246.657C44.5735 205.752 0.253333 155.484 0.00639798 115.48C-0.0393305 107.865 -0.149079 90.015 11.8318 74.05C27.2972 53.4593 51.7804 50.5256 58.914 50.121C88.6651 48.2449 109.728 68.6609 117.986 78.3723C126.199 68.6426 147.125 48.2817 177.095 50.121C184.229 50.5256 208.712 53.4685 224.177 74.05V74.0592C236.149 90.015 236.039 107.865 235.994 115.48C235.747 155.484 191.426 205.752 120.328 246.657L118.005 248Z" fill="#07A9EE"/>
<path d="M381.502 198L380.331 197.329C344.476 176.876 322.128 151.742 322.003 131.74C321.98 127.933 321.925 119.007 327.966 111.025C335.764 100.73 348.11 99.2628 351.707 99.0605C366.708 98.1225 377.329 108.33 381.493 113.186C385.634 108.321 396.186 98.1409 411.298 99.0605C414.895 99.2628 427.24 100.734 435.039 111.025V111.03C441.075 119.007 441.02 127.933 440.997 131.74C440.872 151.742 418.524 176.876 382.674 197.329L381.502 198Z" fill="#16B5F9"/>
<path d="M469.001 50L468.411 49.6609C450.332 39.3312 439.064 26.6374 439.002 16.5353C438.99 14.6124 438.962 10.1048 442.008 6.07324C445.94 0.873558 452.164 0.132737 453.978 0.0305546C461.542 -0.4432 466.897 4.71236 468.997 7.16473C471.085 4.70772 476.405 -0.43391 484.024 0.0305546C485.838 0.132737 492.062 0.875881 495.994 6.07324V6.07556C499.038 10.1048 499.01 14.6124 498.998 16.5353C498.936 26.6374 487.668 39.3312 469.592 49.6609L469.001 50Z" fill="#6DC5FF"/>
</svg>
