<svg width="18" height="18" viewBox="0 0 18 18" fill="none" xmlns="http://www.w3.org/2000/svg">
<g clip-path="url(#clip0_427_1411)">
<path d="M17.9924 8.71636C17.9923 8.90753 17.9923 9.09871 17.9922 9.28988C17.995 9.28906 17.998 9.28924 18.0012 9.29133C18.0012 9.09917 18.0012 8.907 18.0012 8.71484C17.998 8.71687 17.9952 8.7171 17.9924 8.71636Z" fill="#5C5C5C"/>
<path d="M17.9922 8.71206C17.9922 8.71328 17.9922 8.71449 17.9922 8.71571C17.9953 8.71653 17.9985 8.71627 18.0019 8.71402C17.9992 8.71073 17.996 8.71007 17.9922 8.71206Z" fill="#5C5C5C"/>
<path d="M17.9922 9.28957C17.9922 9.2907 17.9922 9.29183 17.9922 9.29297L17.9974 9.29314L18.0022 9.29119C17.9986 9.28885 17.9953 9.28866 17.9922 9.28957Z" fill="#5C5C5C"/>
<path d="M9.27663 17.9922C9.0926 17.9923 8.90857 17.9924 8.72454 17.9926C8.72503 17.9952 8.72455 17.9979 8.72266 18.0008C8.90786 18.0008 9.09306 18.0008 9.27826 18.0008C9.27626 17.9978 9.27596 17.9949 9.27663 17.9922Z" fill="#5C5C5C"/>
<path d="M8.72382 17.9922C8.72231 17.9922 8.7208 17.9922 8.71928 17.9922C8.71809 17.9958 8.7189 17.9988 8.72173 18.0013C8.72384 17.9981 8.72437 17.9951 8.72382 17.9922Z" fill="#5C5C5C"/>
<path d="M9.2777 17.9922C9.27696 17.9952 9.27729 17.9984 9.27951 18.0018C9.28115 17.9988 9.28186 17.9956 9.28164 17.9922C9.28033 17.9922 9.27901 17.9922 9.2777 17.9922Z" fill="#5C5C5C"/>
<path d="M17.9722 9.22326C17.9715 9.07535 17.9715 8.92744 17.9722 8.77954C17.9724 8.75654 17.9703 8.73214 17.989 8.71378C17.9876 8.71309 17.9861 8.71279 17.9849 8.71138C17.9746 8.69583 17.9756 8.67808 17.9753 8.6607C17.9721 8.43371 17.9493 8.20833 17.9258 7.98268C17.8845 7.58569 17.8112 7.19468 17.7149 6.80808C17.5842 6.28314 17.4047 5.77493 17.1814 5.28179C16.918 4.70014 16.5929 4.15531 16.2138 3.64249C16.0394 3.40652 15.8531 3.17983 15.6538 2.96396C15.5366 2.83695 15.4215 2.70789 15.2969 2.58799C14.9265 2.23134 14.534 1.90148 14.1104 1.60879C13.7288 1.34505 13.3302 1.11062 12.9129 0.908499C12.4117 0.6657 11.8911 0.473577 11.3538 0.326767C10.9741 0.223015 10.5889 0.145989 10.1988 0.0945206C10.0035 0.0687466 9.80726 0.0511694 9.61062 0.0357673C9.30536 0.0118539 8.99993 0.0137145 8.69466 0.0188485C8.50674 0.0220073 8.31873 0.0371535 8.13123 0.0566366C7.8097 0.090045 7.49011 0.134678 7.17347 0.200053C6.55357 0.328044 5.9541 0.519884 5.37477 0.774796C4.63803 1.09897 3.95857 1.51706 3.33348 2.02339C3.17209 2.15411 3.01694 2.29226 2.86446 2.43363C2.74651 2.54299 2.63122 2.65494 2.52044 2.77108C2.20672 3.1 1.91486 3.44734 1.65398 3.8202C1.46454 4.09095 1.28689 4.36902 1.12758 4.65853C0.914205 5.0463 0.729916 5.44742 0.575083 5.86224C0.448456 6.20148 0.344098 6.54729 0.258317 6.89889C0.17874 7.22507 0.120842 7.55542 0.079855 7.88831C0.0515341 8.11835 0.0329202 8.34946 0.0217176 8.58147C0.00965667 8.83127 0.00912346 9.08105 0.0168202 9.33022C0.0251541 9.60005 0.0490441 9.86945 0.0839847 10.1379C0.129365 10.4865 0.190569 10.8319 0.276192 11.1726C0.417901 11.7365 0.610442 12.2825 0.856988 12.8096C1.18375 13.5082 1.59549 14.1525 2.08798 14.7452C2.21621 14.8996 2.35208 15.0474 2.48941 15.194C2.83068 15.5584 3.20522 15.8851 3.60242 16.186C3.94121 16.4427 4.29866 16.6712 4.67072 16.8772C5.06589 17.0959 5.47641 17.2807 5.89986 17.4367C6.38618 17.6159 6.88503 17.7494 7.39512 17.8419C7.63068 17.8846 7.86752 17.918 8.10551 17.9412C8.28763 17.9589 8.47009 17.9775 8.65364 17.9759C8.67609 17.9758 8.69934 17.9727 8.72013 17.9855C8.72153 17.9868 8.72183 17.9882 8.72251 17.9896C8.74053 17.9709 8.76479 17.973 8.78757 17.9728C8.92883 17.972 9.07011 17.9721 9.21138 17.9728C9.23433 17.9729 9.25873 17.9708 9.27702 17.9895C9.27769 17.9882 9.27797 17.9868 9.27934 17.9855C9.29658 17.9743 9.31618 17.9762 9.33525 17.976C9.61656 17.9724 9.89545 17.9416 10.1743 17.9068C10.6802 17.8438 11.1756 17.733 11.6621 17.5826C12.0396 17.466 12.4078 17.3247 12.7668 17.1584C13.2213 16.9479 13.6548 16.7016 14.0679 16.4186C14.3521 16.224 14.6232 16.0128 14.8845 15.7883C15.1167 15.5888 15.3358 15.3758 15.5458 15.1539C15.8292 14.8544 16.0894 14.5348 16.3283 14.1981C16.6323 13.7697 16.8985 13.3191 17.1233 12.8444C17.324 12.4207 17.4892 11.9832 17.6214 11.5331C17.7436 11.1167 17.8355 10.6939 17.8957 10.2643C17.9213 10.0812 17.9435 9.89774 17.9556 9.71303C17.9638 9.58775 17.9773 9.46283 17.9755 9.33703C17.9753 9.32137 17.9756 9.30546 17.9849 9.29157C17.9861 9.29021 17.9875 9.28994 17.9889 9.28927C17.9702 9.27078 17.9723 9.24633 17.9722 9.22326Z" fill="#C2C2C2"/>
<path d="M8.72062 17.9854C8.69984 17.9726 8.67659 17.9757 8.65414 17.9759C8.47059 17.9774 8.28813 17.9588 8.10601 17.9411C7.86802 17.9179 7.63118 17.8845 7.39562 17.8418C6.88553 17.7493 6.38667 17.6158 5.90036 17.4366C5.47691 17.2806 5.06639 17.0958 4.67122 16.8771C4.29916 16.6712 3.9417 16.4426 3.60292 16.1859C3.20572 15.885 2.83118 15.5584 2.48991 15.1939C2.35258 15.0473 2.2167 14.8995 2.08848 14.7451C1.59599 14.1524 1.18424 13.5081 0.857486 12.8095C0.61094 12.2824 0.418399 11.7364 0.276691 11.1725C0.191067 10.8318 0.129863 10.4865 0.0844828 10.1378C0.0495422 9.86936 0.0256522 9.59996 0.0173183 9.33013C0.00962159 9.08096 0.0101548 8.83117 0.0222158 8.58138C0.0334183 8.34937 0.0520323 8.11826 0.0803532 7.88822C0.12134 7.55533 0.179238 7.22498 0.258815 6.8988C0.344596 6.5472 0.448954 6.20138 0.575581 5.86214C0.730414 5.44732 0.914704 5.0462 1.12808 4.65844C1.28739 4.36893 1.46504 4.09085 1.65448 3.82011C1.91536 3.44725 2.20721 3.09991 2.52094 2.77098C2.63172 2.65485 2.74701 2.5429 2.86496 2.43353C3.01744 2.29216 3.17259 2.15402 3.33397 2.02329C3.95907 1.51697 4.63853 1.09887 5.37527 0.7747C5.9546 0.519787 6.55406 0.327947 7.17397 0.199956C7.49061 0.134581 7.8102 0.089948 8.13173 0.0565395C8.31923 0.0370564 8.50724 0.0219102 8.69516 0.0187514C9.00043 0.0136174 9.30586 0.0117568 9.61112 0.0356702C9.80776 0.0510723 10.004 0.0686495 10.1993 0.0944236C10.5894 0.145892 10.9746 0.222918 11.3543 0.32667C11.8916 0.47348 12.4122 0.665603 12.9134 0.908403C13.3307 1.11052 13.7293 1.34496 14.1109 1.60869C14.5345 1.90138 14.927 2.23125 15.2974 2.58789C15.422 2.7078 15.5371 2.83685 15.6543 2.96386C15.8536 3.17973 16.0399 3.40643 16.2143 3.64239C16.5934 4.15521 16.9185 4.70005 17.1819 5.2817C17.4052 5.77484 17.5847 6.28305 17.7154 6.80798C17.8117 7.19459 17.885 7.5856 17.9263 7.98258C17.9498 8.20824 17.9726 8.43362 17.9758 8.66061C17.9761 8.67799 17.9751 8.69574 17.9854 8.71128C17.9867 8.7127 17.9881 8.713 17.9895 8.71369C17.9902 8.71298 17.9904 8.71213 17.9912 8.71143C17.9825 8.28852 17.9366 7.86936 17.8651 7.4527C17.7209 6.61308 17.461 5.81063 17.0859 5.04618C16.5568 3.96809 15.8439 3.02816 14.9378 2.23973C13.318 0.830332 11.4308 0.0880394 9.28599 0.00606299C8.62484 -0.0192073 7.96817 0.0350865 7.31724 0.158271C6.49766 0.313374 5.71463 0.576448 4.96967 0.950397C4.01418 1.43002 3.17019 2.06037 2.43773 2.83968C1.78647 3.53259 1.25588 4.30818 0.852461 5.16887C0.223813 6.51009 -0.0546929 7.92218 0.0088458 9.40214C0.0344367 9.99829 0.116736 10.5861 0.261798 11.1648C0.693746 12.8878 1.56047 14.3567 2.85279 15.5735C3.60991 16.2863 4.46869 16.8477 5.4236 17.2603C6.47548 17.7147 7.5743 17.9599 8.72023 17.9918C8.72108 17.9908 8.72213 17.9904 8.72301 17.9895C8.72233 17.9881 8.72203 17.9867 8.72062 17.9854Z" fill="#C2C2C2"/>
<path d="M17.9852 9.29136C17.9759 9.30525 17.9756 9.32116 17.9759 9.33683C17.9776 9.46263 17.9641 9.58754 17.9559 9.71282C17.9439 9.89753 17.9216 10.081 17.896 10.2641C17.8358 10.6937 17.744 11.1165 17.6217 11.5329C17.4895 11.983 17.3243 12.4205 17.1236 12.8442C16.8988 13.3189 16.6326 13.7695 16.3286 14.1979C16.0897 14.5346 15.8295 14.8542 15.5461 15.1537C15.3362 15.3756 15.117 15.5886 14.8848 15.7881C14.6235 16.0126 14.3524 16.2238 14.0682 16.4184C13.6552 16.7014 13.2216 16.9477 12.7671 17.1582C12.4082 17.3245 12.0399 17.4658 11.6624 17.5824C11.1759 17.7328 10.6806 17.8436 10.1746 17.9066C9.89578 17.9414 9.61688 17.9722 9.33557 17.9758C9.3165 17.976 9.2969 17.9741 9.27966 17.9853C9.27829 17.9866 9.27802 17.988 9.27734 17.9893C9.27811 17.9901 9.27903 17.9904 9.27978 17.9913C9.54527 17.9885 9.80951 17.966 10.0728 17.9345C10.6609 17.8642 11.2372 17.7388 11.7998 17.553C13.2277 17.0815 14.462 16.3024 15.5026 15.2176C16.3059 14.3802 16.9223 13.4214 17.3555 12.3451C17.6194 11.6896 17.8008 11.0113 17.9029 10.3122C17.9523 9.97378 17.9857 9.63361 17.9908 9.29118C17.9901 9.29053 17.9899 9.28973 17.9892 9.28906C17.9879 9.28974 17.9865 9.29 17.9852 9.29136Z" fill="#C2C2C2"/>
<path d="M17.9732 8.7806C17.9725 8.92851 17.9725 9.07641 17.9732 9.22432C17.9733 9.24738 17.9712 9.27184 17.9898 9.29033C17.9904 9.29005 17.9909 9.28955 17.9915 9.28939C17.9915 9.09822 17.9916 8.90704 17.9917 8.71588C17.9911 8.71571 17.9905 8.71514 17.9899 8.71484C17.9712 8.7332 17.9733 8.75761 17.9732 8.7806Z" fill="#C2C2C2"/>
<path d="M17.9909 8.7158C17.9909 8.71418 17.9909 8.71256 17.9909 8.71094C17.9897 8.71196 17.9894 8.71322 17.9883 8.71427C17.9892 8.71471 17.99 8.71556 17.9909 8.7158Z" fill="#C2C2C2"/>
<path d="M17.9883 9.29045C17.9893 9.29144 17.9896 9.29262 17.9907 9.29358C17.9907 9.29208 17.9907 9.29057 17.9907 9.28906C17.9899 9.2893 17.9891 9.29005 17.9883 9.29045Z" fill="#C2C2C2"/>
<path d="M9.21153 17.9732C9.07026 17.9725 8.92898 17.9724 8.78771 17.9732C8.76494 17.9734 8.74068 17.9713 8.72266 17.99C8.72303 17.9908 8.72381 17.9915 8.72397 17.9923C8.908 17.9921 9.09203 17.992 9.27605 17.9919C9.27622 17.9912 9.27685 17.9906 9.27717 17.99C9.25888 17.9713 9.23448 17.9733 9.21153 17.9732Z" fill="#C2C2C2"/>
<path d="M8.71875 17.9916C8.72077 17.9916 8.72279 17.9916 8.7248 17.9916C8.72458 17.9905 8.72341 17.9894 8.72287 17.9883C8.72156 17.9896 8.72001 17.9901 8.71875 17.9916Z" fill="#C2C2C2"/>
<path d="M9.27734 17.9911C9.27909 17.9911 9.28085 17.9911 9.2826 17.9911C9.28149 17.9899 9.28013 17.9894 9.27899 17.9883C9.27852 17.9892 9.27758 17.9901 9.27734 17.9911Z" fill="#C2C2C2"/>
<path d="M10.9314 11.9634C10.9068 11.9208 10.8932 11.922 10.8589 11.9534C10.5908 12.1985 10.3159 12.4354 10.0142 12.6391C9.94301 12.6871 9.86744 12.7262 9.78296 12.7452C9.64898 12.7755 9.55261 12.7089 9.53028 12.573C9.51412 12.4747 9.52629 12.3781 9.54706 12.2825C9.59409 12.0659 9.67386 11.8593 9.74723 11.651C10.0432 10.8107 10.367 9.9807 10.6791 9.14638C10.7867 8.8588 10.8616 8.56411 10.8456 8.25339C10.8229 7.81441 10.618 7.48959 10.2295 7.28287C9.9849 7.1527 9.7201 7.09755 9.44588 7.0818C8.95413 7.05354 8.50148 7.19073 8.06944 7.41138C7.62901 7.63632 7.2435 7.93629 6.88945 8.27905C6.86626 8.3015 6.86333 8.31822 6.87848 8.3459C6.95437 8.48452 7.02853 8.62408 7.10525 8.76696C7.12133 8.75332 7.13586 8.74115 7.15022 8.72879C7.33284 8.57159 7.51992 8.42009 7.7196 8.28477C7.82526 8.21317 7.93322 8.14676 8.0614 8.1216C8.25879 8.08286 8.39142 8.19291 8.38803 8.39311C8.38615 8.50349 8.34993 8.60517 8.30949 8.70539C8.06276 9.31676 7.79664 9.92012 7.55359 10.533C7.3085 11.1511 7.06793 11.7708 6.89345 12.4135C6.82118 12.6798 6.75729 12.9481 6.78324 13.2281C6.8198 13.6226 7.00781 13.9153 7.37021 14.085C7.67483 14.2276 7.99691 14.2382 8.32345 14.1921C8.71766 14.1365 9.07884 13.9917 9.4158 13.7822C10.0478 13.3891 10.6045 12.9038 11.1333 12.3839C11.1546 12.3629 11.1502 12.3489 11.1382 12.3266C11.0723 12.2038 11.0012 12.084 10.9314 11.9634Z" fill="white"/>
<path d="M10.6039 3.74444C10.1219 3.7704 9.73559 3.98096 9.46579 4.38053C9.2164 4.74989 9.15896 5.15301 9.35901 5.56073C9.57955 6.01021 9.97211 6.19621 10.4568 6.2134C10.543 6.21117 10.6278 6.20404 10.7124 6.18925C11.3011 6.08627 11.8132 5.60081 11.8712 4.98997C11.9048 4.636 11.7985 4.32708 11.541 4.07934C11.2805 3.82872 10.9615 3.72518 10.6039 3.74444Z" fill="white"/>
</g>
<defs>
<clipPath id="clip0_427_1411">
<rect width="18" height="18" fill="white"/>
</clipPath>
</defs>
</svg>
