<svg width="106" height="53" viewBox="0 0 106 53" fill="none" xmlns="http://www.w3.org/2000/svg">
<path d="M17.0725 20.9867C15.6049 20.0966 13.9978 19.6817 12.3059 19.5781C11.9429 19.556 11.8626 19.4428 11.8873 19.1163C11.9129 18.7792 11.8767 18.4376 11.8979 18.0997C11.9138 17.8395 11.8122 17.7758 11.5703 17.7847C11.1005 17.8006 10.629 17.7891 10.1583 17.7891C9.68765 17.7891 9.21611 17.8077 8.74633 17.782C8.46111 17.7661 8.39753 17.8687 8.41166 18.1315C8.43285 18.5137 8.40813 18.8977 8.42049 19.2809C8.42755 19.4826 8.37634 19.5569 8.15558 19.564C7.03235 19.602 5.93474 19.7993 4.87774 20.1825C3.0525 20.8434 1.50718 21.8697 0.637385 23.6809C-0.656267 26.3724 -0.200619 30.6584 4.06622 32.4775C5.32102 33.0128 6.62615 33.3419 7.99486 33.3614C8.2845 33.3658 8.38164 33.4472 8.36486 33.7392C8.34102 34.1356 8.37104 34.5355 8.35514 34.9328C8.34543 35.1788 8.42226 35.2699 8.67745 35.2673C9.63379 35.2549 10.5901 35.254 11.5464 35.2673C11.8158 35.2708 11.8635 35.1558 11.8546 34.924C11.8396 34.5417 11.8758 34.1551 11.8431 33.7755C11.8131 33.4322 11.9456 33.365 12.2608 33.3579C13.8406 33.3189 15.3479 32.9456 16.744 32.2085C18.9013 31.0689 20.1534 29.2905 20.2214 26.8157C20.2903 24.2914 19.2633 22.3148 17.0725 20.9867ZM8.41696 26.4494C8.41696 27.6581 8.40901 28.8667 8.42314 30.0753C8.42667 30.354 8.36574 30.4611 8.06551 30.4443C6.81866 30.3735 5.63274 30.1133 4.70554 29.2162C2.75315 27.3271 3.59468 23.7703 6.19435 22.8368C6.7957 22.6209 7.42177 22.5493 8.04961 22.4767C8.31982 22.4457 8.43109 22.513 8.42667 22.8236C8.40548 24.0322 8.41696 25.2408 8.41696 26.4494ZM14.0251 30.1001C13.4512 30.3018 12.8631 30.3938 12.2608 30.4434C11.9456 30.469 11.8326 30.3956 11.8396 30.047C11.8643 28.841 11.8493 27.6342 11.8493 26.4273C11.8493 25.2205 11.8476 24.0145 11.8511 22.8076C11.852 22.6634 11.7778 22.4608 12.0577 22.4776C13.5995 22.5723 15.0442 22.905 15.9714 24.2932C17.4028 26.4362 16.4429 29.2516 14.0251 30.1001Z" fill="#019bdd"/>
<path d="M63.7955 35.2084C64.1002 35.2155 64.1955 35.1305 64.1946 34.8164C64.184 31.1163 64.1832 27.4161 64.1964 23.7167C64.1973 23.3664 64.0772 23.3062 63.7646 23.3097C62.4259 23.3248 61.0872 23.3239 59.7477 23.3106C59.4686 23.308 59.3441 23.3903 59.2505 23.6654C58.5918 25.5987 57.9109 27.5249 57.2372 29.4528C57.0111 30.0996 56.7833 30.7455 56.5458 31.4197C56.348 31.2472 56.3321 31.0499 56.2702 30.8782C55.4146 28.4849 54.5589 26.0906 53.7183 23.6911C53.6203 23.4124 53.5028 23.3027 53.1937 23.3071C51.8701 23.3266 50.5455 23.3195 49.2209 23.3115C48.9649 23.3097 48.8289 23.3336 48.8306 23.6601C48.8439 27.3895 48.843 31.1189 48.8315 34.8483C48.8306 35.1544 48.9384 35.2111 49.2112 35.2066C50.0643 35.1916 50.9181 35.1898 51.7712 35.2075C52.0599 35.2137 52.1429 35.1305 52.142 34.8368C52.1297 32.508 52.1359 30.1784 52.1314 27.8496C52.1306 27.424 52.1208 26.9984 52.0767 26.5658C52.188 26.6861 52.2462 26.8144 52.293 26.9462C53.2326 29.5749 54.1766 32.2028 55.1029 34.8368C55.2035 35.1235 55.3316 35.2217 55.6318 35.2075C56.204 35.181 56.7798 35.181 57.3529 35.2075C57.6672 35.2217 57.8129 35.1235 57.9189 34.8173C58.5291 33.0539 59.164 31.2985 59.7909 29.5404C60.1441 28.5495 60.4991 27.5594 60.8523 26.5684C60.8868 26.5737 60.9203 26.579 60.9548 26.5844C60.9247 26.9356 60.8691 27.2869 60.8682 27.6381C60.8603 30.0412 60.8691 32.4434 60.8559 34.8465C60.8541 35.1527 60.961 35.2102 61.2356 35.2057C62.0886 35.1925 62.9425 35.1889 63.7955 35.2084Z" fill="#019bdd"/>
<path d="M44.7725 24.3137C43.1716 22.6918 40.08 22.5485 38.6062 24.211C38.4252 24.4154 38.2513 24.626 38.0058 24.9144C38.0058 24.4411 37.9819 24.0854 38.0128 23.735C38.0411 23.4076 37.9122 23.3475 37.6164 23.3563C36.9108 23.3776 36.2035 23.3882 35.4997 23.3528C35.1077 23.3333 35.0158 23.4457 35.0176 23.835C35.0335 27.798 35.0273 31.7618 35.0273 35.7248C35.0273 37.036 35.0414 38.3473 35.0185 39.6585C35.0123 40.0178 35.1244 40.1001 35.4618 40.0886C36.2106 40.0638 36.962 40.0647 37.7108 40.0886C38.034 40.0992 38.1321 40.0204 38.1285 39.6807C38.11 37.8686 38.1179 36.0566 38.1232 34.2445C38.1232 34.11 38.0588 33.9561 38.2027 33.8136C38.6248 34.548 39.2049 35.086 40.0023 35.3638C41.9883 36.0548 44.2965 35.255 45.4109 33.473C46.4697 31.7804 46.6419 29.9126 46.4202 27.9846C46.2595 26.592 45.7809 25.3356 44.7725 24.3137ZM42.8501 31.614C42.3804 32.5935 41.5326 32.9987 40.4783 32.981C39.4337 32.9634 38.7634 32.3856 38.3537 31.4654C38.049 30.7815 37.9537 30.0559 37.9625 29.564C37.959 28.4642 38.0773 27.6422 38.5285 26.9008C39.0698 26.0107 39.9025 25.6966 40.8933 25.7647C41.8408 25.8302 42.5446 26.3142 42.8784 27.2051C43.4268 28.6677 43.5486 30.1577 42.8501 31.614Z" fill="#019bdd"/>
<path d="M32.9928 34.7765C32.5001 34.4191 32.4577 33.8935 32.4162 33.3609C32.4082 33.3387 32.4021 33.3157 32.3976 33.2927C32.3791 33.2317 32.3588 33.1698 32.3588 33.1087C32.3597 30.8259 32.3641 28.5432 32.3685 26.2604C32.3058 24.7819 31.4369 23.9104 30.1371 23.4565C28.2668 22.8036 26.3621 22.8319 24.4838 23.4406C23.2379 23.8441 22.1703 25.0483 22.0131 26.7241C23.0692 26.74 24.1253 26.7692 25.1814 26.7081C25.3898 25.8702 26.0433 25.6526 26.7824 25.5544C27.0756 25.4553 27.3687 25.4517 27.661 25.5579C27.903 25.6119 28.1546 25.6429 28.3869 25.7251C29.0032 25.9446 29.2099 26.2949 29.1595 27.0346C29.1251 27.5345 28.7083 27.6708 28.333 27.761C27.7802 27.8938 27.2107 27.9619 26.6455 28.0336C25.3651 28.1964 24.1315 28.4972 23.0489 29.2377C21.8798 30.0376 21.4144 31.1745 21.5698 32.561C21.712 33.8316 22.3495 34.7898 23.562 35.2481C25.4693 35.9683 27.2248 35.61 28.816 34.3624C28.9794 34.2341 29.1339 34.0944 29.3715 33.8944C29.2681 34.3642 29.4774 34.6792 29.518 35.026C29.5454 35.2587 29.677 35.3278 29.9101 35.3242C30.8514 35.3109 31.7928 35.3207 32.7341 35.3162C32.8409 35.3154 33.0016 35.3808 33.0405 35.234C33.0793 35.0853 33.1367 34.8809 32.9928 34.7765ZM28.9405 31.9859C28.5008 32.8229 26.8857 33.5325 25.8367 33.245C25.2362 33.0804 24.8812 32.7061 24.7876 32.085C24.6931 31.4639 24.9448 30.8764 25.4561 30.5658C25.9568 30.2614 26.5298 30.2022 27.0888 30.1004C27.7776 29.9748 28.4734 29.8739 29.1392 29.5226C29.194 30.0809 29.1277 30.595 29.1922 31.1091C29.2302 31.4117 29.0871 31.7072 28.9405 31.9859Z" fill="#019bdd"/>
<path d="M73.0292 27.7882C72.4879 27.9139 71.9289 27.9714 71.377 28.0457C70.1001 28.2174 68.8683 28.5182 67.7768 29.249C65.7141 30.6293 65.7644 33.8207 67.8846 35.0418C68.825 35.5832 69.8599 35.6655 70.9187 35.524C72.1311 35.362 73.1289 34.7754 74.08 33.8446C74.087 34.326 74.1833 34.6772 74.2575 35.0329C74.3043 35.2576 74.4102 35.3098 74.6186 35.3081C75.5891 35.2992 76.5604 35.3063 77.5318 35.3019C77.6236 35.3019 77.7649 35.3603 77.7958 35.2258C77.8267 35.0895 77.8797 34.8958 77.7508 34.8099C77.0708 34.3605 77.1115 33.6597 77.107 32.9882C77.0938 30.8655 77.0991 28.7429 77.1026 26.6212C77.1044 25.1896 76.4757 24.1544 75.1529 23.6023C73.317 22.8361 71.4238 22.8564 69.535 23.3554C68.0064 23.7589 67.157 24.8366 66.7931 26.3416C66.7216 26.6362 66.7693 26.7575 67.1146 26.7468C67.9225 26.7221 68.7323 26.7318 69.5412 26.7433C69.761 26.7468 69.8802 26.6902 69.9659 26.4708C70.1187 26.0841 70.4092 25.8045 70.8101 25.6851C71.5598 25.4612 72.321 25.4559 73.0698 25.6877C73.6702 25.8736 73.9617 26.3106 73.9396 26.9158C73.9228 27.3414 73.6464 27.6458 73.0292 27.7882ZM73.921 31.2097C73.8354 32.1511 73.2014 32.6776 72.4013 33.043C71.996 33.2279 71.5633 33.3084 71.12 33.3084C70.1928 33.3076 69.648 32.8696 69.5394 32.0556C69.4299 31.2318 69.8643 30.5957 70.7068 30.3311C71.3664 30.1241 72.0587 30.0825 72.7263 29.9153C73.1219 29.8162 73.5237 29.7365 73.9307 29.464C73.9307 30.0958 73.9714 30.6567 73.921 31.2097Z" fill="#019bdd"/>
<path d="M32.3855 32.8361C32.3864 32.9883 32.3634 33.1432 32.3961 33.2936C32.4031 33.3166 32.4093 33.3387 32.4146 33.3617C32.419 31.0798 32.4243 28.7971 32.4252 26.5152C32.4252 26.4303 32.3872 26.3462 32.3669 26.2613C32.4058 28.452 32.3722 30.6436 32.3855 32.8361Z" fill="#019bdd"/>
<path d="M32.3588 33.1087C32.3588 33.1698 32.3791 33.2317 32.3976 33.2927C32.3649 33.1414 32.3887 32.9872 32.3878 32.835C32.3746 30.6434 32.4074 28.4521 32.3685 26.2604C32.3641 28.5432 32.3597 30.8259 32.3588 33.1087Z" fill="#019bdd"/>
<path d="M26.7824 25.5544C27.0756 25.5553 27.3687 25.5561 27.661 25.5579C27.3687 25.5092 27.0756 25.5137 26.7824 25.5544Z" fill="#019bdd"/>
<path d="M27.661 25.5579C27.3687 25.5092 27.0756 25.5137 26.7824 25.5544C27.0756 25.4553 27.3687 25.4517 27.661 25.5579Z" fill="#019bdd"/>
<path d="M105.748 47.5129C104.408 46.2511 103.064 44.9921 101.725 43.7304C101.249 43.2827 101.258 43.2836 101.62 42.7633C105.611 37.0299 106.91 30.7355 105.37 23.919C103.03 13.5582 93.7475 6.06487 83.1863 5.93126C82.8446 5.92684 82.7448 5.84455 82.7501 5.49506C82.7704 3.9918 82.7466 2.48766 82.7678 0.984403C82.7731 0.624293 82.66 0.53316 82.3183 0.543777C81.5536 0.567667 80.788 0.563243 80.0233 0.544662C79.7178 0.537584 79.6197 0.632256 79.6224 0.943702C79.6365 2.47704 79.6136 4.01039 79.6383 5.54284C79.6453 5.9817 79.5685 6.14361 79.074 6.22767C73.0349 7.25756 68.1173 10.203 64.3202 15.0189C63.1767 16.4691 62.238 18.0458 61.4865 19.7349C61.3541 20.0322 61.392 20.1401 61.747 20.1277C62.4234 20.1038 63.1043 20.0773 63.7762 20.1339C64.3935 20.1861 64.6955 19.9667 65.0125 19.4146C68.1544 13.9422 72.7938 10.5145 79.0069 9.28639C79.6277 9.1634 79.6286 9.16694 79.6286 9.78541C79.6286 18.0847 79.6286 26.3841 79.6286 34.6843C79.6286 34.802 79.6374 34.9205 79.6268 35.0382C79.6091 35.2435 79.6833 35.3249 79.8988 35.3222C80.7518 35.3125 81.6057 35.3125 82.4587 35.3222C82.6883 35.3249 82.7669 35.2514 82.7625 35.0187C82.7492 34.4003 82.7581 33.7809 82.7581 33.1616C82.7581 32.1379 82.7581 31.1142 82.7581 30.0489C82.8428 30.1037 82.8808 30.1214 82.9099 30.1489C87.5574 34.5569 92.2031 38.9667 96.8567 43.3685C97.0863 43.5853 97.0368 43.6941 96.8408 43.8826C94.9758 45.6805 92.8433 47.066 90.4511 48.0482C87.3905 49.3046 84.2142 49.7567 80.9169 49.4656C78.3667 49.24 75.9534 48.5587 73.6813 47.4014C69.8048 45.4265 66.8545 42.4899 64.8041 38.649C64.6761 38.4093 64.5365 38.3102 64.261 38.3155C63.408 38.3323 62.5541 38.3402 61.7011 38.3137C61.2967 38.3013 61.3143 38.4234 61.4512 38.7304C62.4596 40.9955 63.7815 43.0579 65.4576 44.8806C69.4754 49.2479 74.4354 51.7669 80.335 52.4084C83.6111 52.7641 86.8209 52.4137 89.9478 51.3944C93.3404 50.2884 96.3198 48.4693 98.8744 45.9716C99.1861 45.6672 99.3407 45.6902 99.6232 45.9857C100.152 46.5387 100.727 47.0466 101.282 47.5739C101.4 47.6854 101.508 47.7871 101.696 47.7854C103.092 47.7774 104.489 47.7809 105.986 47.7809C105.861 47.6394 105.81 47.5713 105.748 47.5129ZM100.882 38.3199C100.432 39.2339 99.8634 40.0753 99.323 40.9353C99.1252 41.2503 98.9928 41.2432 98.7367 40.9999C97.285 39.6223 95.82 38.2579 94.3586 36.8909C91.7465 34.448 89.1389 32.0007 86.5127 29.5729C86.1966 29.2809 86.224 29.1119 86.4624 28.7942C88.5173 26.0673 90.5544 23.3262 92.5925 20.586C92.6923 20.4516 92.8424 20.3356 92.853 20.1003C91.6573 20.1003 90.4723 20.1012 89.2873 20.0994C89.0621 20.0994 89.0047 20.2923 88.9058 20.4259C86.9242 23.098 84.9471 25.7727 82.9691 28.4474C82.9258 28.5058 82.8799 28.5624 82.8322 28.6226C82.6777 28.5447 82.7484 28.4111 82.7484 28.3111C82.7439 21.9743 82.7475 15.6365 82.7369 9.29966C82.736 8.93867 82.8464 8.85549 83.1872 8.86877C87.7155 9.04926 91.8083 10.4472 95.3502 13.3069C99.3548 16.5399 101.83 20.7028 102.722 25.7913C103.488 30.171 102.84 34.3419 100.882 38.3199Z" fill="#019bdd"/>
</svg>
