<svg width="515" height="71" viewBox="0 0 515 71" fill="none" xmlns="http://www.w3.org/2000/svg">
<path d="M264.17 70.5298L263.374 70.0545C239.008 55.5751 223.821 37.7818 223.737 23.6214C223.721 20.926 223.683 14.6075 227.789 8.9564C233.088 1.66785 241.478 0.629421 243.922 0.486189C254.117 -0.177886 261.334 7.04881 264.164 10.4864C266.978 7.0423 274.149 -0.164865 284.419 0.486189C286.863 0.629421 295.253 1.67111 300.552 8.9564V8.95965C304.654 14.6075 304.617 20.926 304.601 23.6214C304.517 37.7818 289.33 55.5751 264.966 70.0545L264.17 70.5298ZM245.141 3.78378C244.8 3.78378 244.455 3.79354 244.104 3.81308C242.007 3.93678 234.818 4.81895 230.352 10.9682C226.899 15.7176 226.93 21.0432 226.946 23.6019C227.021 36.4276 241.261 52.8928 264.17 66.6886C287.079 52.8863 301.317 36.4276 301.392 23.6019C301.408 21.0432 301.439 15.7143 297.989 10.9649C293.523 4.82221 286.334 3.93678 284.237 3.81308C272.88 3.22713 265.791 13.6798 265.499 14.1258L264.177 16.1505L262.848 14.1323C262.56 13.6993 255.891 3.78378 245.141 3.78378Z" fill="#019BDD"/>
<path d="M53.0697 5.28338L48.6437 17.199C38.9248 11.6973 28.0011 11.9757 21.748 17.7142C15.8763 23.1027 15.8977 31.6764 15.9085 35.9668C15.9201 40.6361 15.8908 48.5906 21.5665 53.6388C27.0632 58.5278 34.6848 57.8359 39.3266 57.4146C44.5435 56.9412 48.6424 55.3218 51.2403 54.0503C51.2107 58.4486 51.1813 62.8467 51.1517 67.2451C33.4423 73.6189 15.4516 70.4817 7.11367 59.8723C-1.24374 49.238 -0.0920856 35.2057 0.253475 31.7957C0.688504 27.5047 1.64176 19.2284 8.00145 11.8265C13.737 5.15094 20.6912 2.8862 23.4697 2.02132C37.5778 -2.3705 49.9093 3.62453 53.0697 5.28338Z" fill="#019BDD"/>
<path d="M62.9583 1.70896V68.8839H76.6787V18.391L92.7596 68.8839H106.48L123.889 18.242V68.8839H137.757V1.70896H116.66L100.357 53.2445L83.0225 1.70896H62.9583Z" fill="#019BDD"/>
<path d="M184.81 1.70896H166.885L142.985 68.8842H159.361L164.451 52.9468H188.572L194.105 68.8842H210.259L184.81 1.70896ZM166.996 41.5523L175.958 12.9546L185.806 41.5523H166.996Z" fill="#019BDD"/>
<path d="M331.566 1.28882C333.415 0.965669 336.007 0.722399 339.661 0.722399C343.351 0.722399 345.985 1.44858 347.752 2.89729C349.48 4.26977 350.582 6.52454 350.582 9.18234C350.582 11.8401 349.757 14.1385 348.145 15.6271C346.102 17.5624 343.078 18.4883 339.541 18.4883C338.755 18.4883 338.05 18.4483 337.498 18.3249V28.0738H331.566V1.28882ZM337.498 13.612C338.011 13.7355 338.599 13.7754 339.502 13.7754C342.685 13.7754 344.647 12.1234 344.647 9.38567C344.647 6.88763 342.958 5.39534 339.934 5.39534C338.755 5.39534 337.93 5.47522 337.498 5.59867V13.612Z" fill="#878787"/>
<path d="M353.763 28.0738C354.312 27.1879 354.744 26.1385 355.098 25.0529C356.157 21.9521 356.787 18.7279 358.791 16.7563C359.379 16.1899 360.126 15.707 360.99 15.3839V15.2641C358.044 14.7013 355.413 12.5663 355.413 8.61956C355.413 6.12151 356.511 4.14632 358.161 2.85735C360.204 1.28882 363.388 0.722399 366.844 0.722399C369.751 0.722399 372.499 0.965668 374.425 1.28882V28.0738H368.494V17.439H367.039C365.863 17.439 364.917 17.802 364.213 18.4883C362.524 20.0968 361.854 23.5606 361.068 25.7791C360.796 26.5851 360.558 27.2278 360.126 28.0738H353.763ZM368.494 5.55873C368.062 5.43528 367.276 5.31546 366.058 5.31546C363.466 5.31546 361.384 6.40472 361.384 9.18234C361.384 11.6804 363.621 13.0093 366.373 13.0093C367.12 13.0093 367.945 13.0093 368.494 12.8895V5.55873Z" fill="#878787"/>
<path d="M386.721 6.08226H379.572V0.926415H399.922V6.08226H392.695V28.0745H386.721V6.08226Z" fill="#878787"/>
<path d="M410.336 0.886929L414.189 10.6721C414.932 12.5675 415.446 14.2195 416.072 15.8716H416.189C416.505 14.7024 416.975 12.8906 417.606 10.5523L420.474 0.886929H426.798L421.809 14.2994C420.198 18.4894 418.587 22.5959 416.582 25.094C414.854 27.3088 412.655 28.6777 409.553 28.6777C408.176 28.6777 407.39 28.5179 406.604 28.2347L407.039 23.3221C407.549 23.4419 408.137 23.5218 409.001 23.5218C410.85 23.5218 412.107 22.2329 412.616 21.0274C412.811 20.5409 412.694 20.1814 412.5 19.7384L403.58 0.886928L410.336 0.886929Z" fill="#878787"/>
<path d="M448.88 6.52462C447.701 5.96184 445.817 5.43536 443.657 5.43536C438.901 5.43536 436.231 8.33643 435.643 11.9637H447.662V16.7564H435.682C436.075 20.7431 439.177 23.4808 443.972 23.4808C445.58 23.4808 447.623 23.1177 448.958 22.5549L449.864 27.1879C448.685 27.7907 446.171 28.5168 443.065 28.5168C434.386 28.5168 429.199 23.1177 429.199 14.5815C429.199 7.33068 433.873 0.482846 443.381 0.482846C446.72 0.482846 449 1.2889 450.098 1.85169L448.88 6.52462Z" fill="#878787"/>
<path d="M478.146 17.6829C478.026 14.4188 477.909 10.472 477.909 6.52523H477.831C476.967 9.98908 475.866 13.856 474.846 17.0366L471.624 27.6315H466.95L464.121 17.1601C463.257 13.9358 462.393 10.069 461.723 6.52523H461.645C461.529 10.1888 461.373 14.3788 461.213 17.7628L460.704 28.0745H455.165L456.854 0.926415H464.829L467.421 9.98908C468.285 13.1298 469.071 16.5138 469.659 19.698H469.818C470.523 16.5537 471.429 12.97 472.332 9.94914L475.119 0.926415H482.976L484.393 28.0745H478.578L478.146 17.6829Z" fill="#878787"/>
<path d="M515.002 14.2189C515.002 23.1618 509.779 28.5173 501.999 28.5173C494.18 28.5173 489.545 22.4356 489.545 14.6619C489.545 6.52508 494.651 0.443359 502.431 0.443359C510.561 0.44336 515.002 6.68484 515.002 14.2189ZM495.869 14.5421C495.869 19.8976 498.306 23.6447 502.314 23.6447C506.358 23.6447 508.677 19.6979 508.677 14.4186C508.677 9.50603 506.439 5.316 502.314 5.316C498.228 5.316 495.869 9.26276 495.869 14.5421Z" fill="#878787"/>
<path d="M331.566 40.721C333.415 40.4015 336.007 40.1618 339.661 40.1618C343.351 40.1618 345.985 40.888 347.752 42.3331C349.48 43.7056 350.582 45.9567 350.582 48.6218C350.582 51.2796 349.757 53.5743 348.145 55.0629C346.102 56.9946 343.078 57.9241 339.541 57.9241C338.755 57.9241 338.05 57.8805 337.498 57.7643V67.5096H331.566V40.721ZM337.498 53.0514C338.011 53.1676 338.599 53.2112 339.502 53.2112C342.685 53.2112 344.647 51.5555 344.647 48.8178C344.647 46.3198 342.958 44.8311 339.934 44.8311C338.755 44.8311 337.93 44.911 337.498 45.0345V53.0514Z" fill="#878787"/>
<path d="M360.131 60.5383L358.243 67.5096H352.078L360.131 40.3579H367.988L376.235 67.5096H369.755L367.712 60.5383H360.131ZM366.848 55.9489L365.198 50.1903C364.727 48.5782 364.256 46.5667 363.863 44.9546H363.785C363.392 46.5667 362.999 48.6218 362.567 50.1903L360.995 55.9489H366.848Z" fill="#878787"/>
<path d="M380.914 42.0501C382.72 40.9681 385.471 39.8788 389.164 39.8788C394.936 39.8788 398.357 42.8561 398.357 46.8429C398.357 50.2704 396.115 52.4852 393.052 53.2477V53.3276C396.352 53.8141 399.221 56.1524 399.221 59.776C399.221 65.8614 393.286 67.9528 388.339 67.9528C385.588 67.9528 382.603 67.35 380.404 66.0574L381.661 61.3083C382.84 61.9546 385.588 62.9567 388.063 62.9567C391.087 62.9567 392.935 61.6278 392.935 59.3766C392.935 56.3921 389.869 55.7893 387.355 55.7893H384.841V51.2362H387.355C390.067 51.2362 392.11 49.9872 392.11 47.8159C392.11 46.0441 390.655 44.8313 388.102 44.8313C386.059 44.8313 383.782 45.681 382.288 46.4435L380.914 42.0501Z" fill="#878787"/>
<path d="M429.278 53.6544C429.278 62.5936 424.055 67.9528 416.276 67.9528C408.457 67.9528 403.822 61.8674 403.822 54.0973C403.822 45.9569 408.928 39.8788 416.708 39.8788C424.838 39.8788 429.278 46.1239 429.278 53.6544ZM410.146 53.9739C410.146 59.3331 412.582 63.0801 416.591 63.0801C420.635 63.0801 422.954 59.1297 422.954 53.8577C422.954 48.9415 420.716 44.7515 416.591 44.7515C412.505 44.7515 410.146 48.7019 410.146 53.9739Z" fill="#878787"/>
<path d="M457.371 57.1181C457.251 53.8575 457.134 49.9071 457.134 45.9567H457.056C456.192 49.4206 455.091 53.2911 454.071 56.4718L450.849 67.0667H446.175L443.345 56.5952C442.481 53.371 441.617 49.5077 440.948 45.9567H440.87C440.753 49.6239 440.597 53.814 440.438 57.1979L439.928 67.5096H434.39L436.079 40.3579H444.053L446.645 49.4206C447.509 52.5649 448.296 55.9489 448.883 59.1296H449.043C449.747 55.9925 450.654 52.4052 451.557 49.3843L454.344 40.3579H462.201L463.618 67.5096H457.803L457.371 57.1181Z" fill="#878787"/>
</svg>
