<svg width="192" height="26" viewBox="0 0 192 26" fill="none" xmlns="http://www.w3.org/2000/svg">
<path d="M98.0006 26L97.7053 25.8237C88.6661 20.4522 83.0322 13.8515 83.0008 8.59836C82.995 7.59846 82.981 5.25449 84.504 3.15809C86.47 0.45425 89.5822 0.0690232 90.4891 0.0158884C94.271 -0.230464 96.9484 2.45043 97.9983 3.72566C99.0423 2.44801 101.702 -0.225633 105.512 0.0158884C106.419 0.0690232 109.531 0.455458 111.497 3.15809V3.15929C113.019 5.25449 113.005 7.59846 112.999 8.59836C112.968 13.8515 107.334 20.4522 98.2959 25.8237L98.0006 26ZM90.9413 1.2392C90.8146 1.2392 90.6867 1.24282 90.5565 1.25007C89.7787 1.29595 87.1117 1.62322 85.455 3.90439C84.1739 5.66629 84.1855 7.64194 84.1913 8.59112C84.2192 13.3491 89.502 19.4572 98.0006 24.575C106.499 19.4548 111.781 13.3491 111.809 8.59112C111.815 7.64194 111.826 5.66508 110.546 3.90318C108.889 1.62442 106.222 1.29595 105.445 1.25007C101.231 1.0327 98.6016 4.91033 98.4935 5.07577L98.0029 5.8269L97.51 5.07818C97.403 4.91757 94.929 1.2392 90.9413 1.2392Z" fill="#019BDD"/>
<path d="M19.6873 1.79551L18.0454 6.21586C14.44 4.17489 10.3876 4.27817 8.06786 6.40696C5.88963 8.40593 5.89757 11.5865 5.90157 13.1781C5.9059 14.9103 5.895 17.8612 8.00051 19.7339C10.0396 21.5476 12.867 21.291 14.589 21.1347C16.5243 20.959 18.0449 20.3583 19.0086 19.8866C18.9976 21.5182 18.9867 23.1498 18.9758 24.7815C12.4061 27.146 5.73209 25.9821 2.63896 22.0464C-0.461389 18.1014 -0.034161 12.8958 0.0940317 11.6308C0.255415 10.039 0.609046 6.96868 2.9683 4.22281C5.09602 1.74638 7.67583 0.906222 8.70658 0.585377C13.9403 -1.04386 18.5149 1.18012 19.6873 1.79551Z" fill="#019BDD"/>
<path d="M23.3557 0.469501V25.3894H28.4455V6.65804L34.4111 25.3894H39.5009L45.959 6.60279V25.3894H51.1036V0.469501H43.2773L37.2296 19.5877L30.7989 0.469501H23.3557Z" fill="#019BDD"/>
<path d="M68.5591 0.469501H61.9095L53.0433 25.3895H59.1183L61.0064 19.4772H69.9547L72.0071 25.3895H78L68.5591 0.469501ZM61.9505 15.2502L65.2754 4.64129L68.9286 15.2502H61.9505Z" fill="#019BDD"/>
<path d="M123 0.31364C123.686 0.193761 124.647 0.103516 126.003 0.103516C127.372 0.103516 128.349 0.372905 129.005 0.910337C129.646 1.41948 130.054 2.25594 130.054 3.2419C130.054 4.22787 129.748 5.08049 129.15 5.63274C128.392 6.35066 127.271 6.69413 125.958 6.69413C125.667 6.69413 125.405 6.67932 125.2 6.63352V10.2501H123V0.31364ZM125.2 4.88518C125.391 4.93098 125.609 4.94579 125.944 4.94579C127.125 4.94579 127.852 4.33293 127.852 3.31733C127.852 2.39063 127.226 1.83704 126.104 1.83704C125.667 1.83704 125.361 1.86667 125.2 1.91247V4.88518Z" fill="#878787"/>
<path d="M131.234 10.2501C131.438 9.92142 131.598 9.53215 131.73 9.12941C132.122 7.97912 132.356 6.78303 133.1 6.05164C133.318 5.84151 133.595 5.66237 133.915 5.54249V5.49804C132.823 5.28927 131.847 4.49726 131.847 3.03313C131.847 2.10643 132.254 1.37369 132.866 0.895521C133.624 0.313639 134.805 0.103516 136.087 0.103516C137.165 0.103516 138.185 0.193761 138.899 0.31364V10.2501H136.699V6.30486H136.159C135.723 6.30486 135.372 6.43956 135.111 6.69413C134.484 7.29083 134.236 8.57582 133.944 9.3988C133.843 9.69783 133.755 9.93624 133.595 10.2501H131.234ZM136.699 1.89765C136.539 1.85185 136.247 1.8074 135.795 1.8074C134.834 1.8074 134.061 2.21149 134.061 3.2419C134.061 4.1686 134.891 4.66159 135.912 4.66159C136.189 4.66159 136.495 4.66159 136.699 4.61714V1.89765Z" fill="#878787"/>
<path d="M143.461 2.09187H140.809V0.179199H148.358V2.09187H145.677V10.2503H143.461V2.09187Z" fill="#878787"/>
<path d="M152.221 0.164551L153.65 3.79458C153.926 4.49768 154.117 5.11054 154.349 5.7234H154.393C154.51 5.28969 154.684 4.61756 154.918 3.75013L155.982 0.164551H158.328L156.477 5.14018C155.88 6.69455 155.282 8.21795 154.538 9.14465C153.897 9.96629 153.082 10.4741 151.931 10.4741C151.42 10.4741 151.128 10.4148 150.837 10.3098L150.998 8.48734C151.187 8.53179 151.405 8.56142 151.726 8.56142C152.412 8.56142 152.878 8.08326 153.067 7.63607C153.139 7.45558 153.096 7.32223 153.024 7.1579L149.715 0.164551L152.221 0.164551Z" fill="#878787"/>
<path d="M166.52 2.25597C166.082 2.04719 165.384 1.85189 164.582 1.85189C162.818 1.85189 161.828 2.9281 161.61 4.2737H166.068V6.05167H161.624C161.77 7.53062 162.921 8.54622 164.699 8.54622C165.296 8.54622 166.053 8.41152 166.549 8.20275L166.885 9.92145C166.448 10.145 165.515 10.4144 164.363 10.4144C161.143 10.4144 159.219 8.41152 159.219 5.24485C159.219 2.55499 160.953 0.0146484 164.48 0.0146484C165.718 0.0146484 166.564 0.313671 166.972 0.522448L166.52 2.25597Z" fill="#878787"/>
<path d="M177.377 6.39536C177.332 5.18446 177.289 3.72033 177.289 2.25619H177.26C176.939 3.54118 176.531 4.97568 176.153 6.15561L174.957 10.086H173.223L172.174 6.2014C171.853 5.00531 171.533 3.57081 171.284 2.25619H171.255C171.212 3.61526 171.154 5.16964 171.095 6.425L170.906 10.2503H168.852L169.478 0.179199H172.436L173.398 3.54118C173.718 4.70629 174.01 5.96165 174.228 7.14292H174.287C174.549 5.97646 174.885 4.64703 175.22 3.52637L176.254 0.179199H179.169L179.694 10.2503H177.537L177.377 6.39536Z" fill="#878787"/>
<path d="M191.049 5.11032C191.049 8.42785 189.111 10.4146 186.225 10.4146C183.325 10.4146 181.605 8.15846 181.605 5.27465C181.605 2.25614 183.5 0 186.386 0C189.402 2.75855e-07 191.049 2.3154 191.049 5.11032ZM183.952 5.2302C183.952 7.21695 184.855 8.607 186.342 8.607C187.842 8.607 188.703 7.14287 188.703 5.1844C188.703 3.36198 187.873 1.8076 186.342 1.8076C184.826 1.8076 183.952 3.27174 183.952 5.2302Z" fill="#878787"/>
<path d="M123 14.9418C123.686 14.8233 124.647 14.7344 126.003 14.7344C127.372 14.7344 128.349 15.0038 129.005 15.5399C129.646 16.049 130.054 16.8841 130.054 17.8728C130.054 18.8587 129.748 19.71 129.15 20.2622C128.392 20.9788 127.271 21.3236 125.958 21.3236C125.667 21.3236 125.405 21.3075 125.2 21.2644V24.8796H123V14.9418ZM125.2 19.516C125.391 19.5591 125.609 19.5753 125.944 19.5753C127.125 19.5753 127.852 18.9611 127.852 17.9455C127.852 17.0188 127.226 16.4666 126.104 16.4666C125.667 16.4666 125.361 16.4962 125.2 16.542V19.516Z" fill="#878787"/>
<path d="M133.597 22.2935L132.896 24.8796H130.609L133.597 14.8071H136.511L139.571 24.8796H137.167L136.409 22.2935H133.597ZM136.088 20.5909L135.476 18.4547C135.302 17.8566 135.127 17.1104 134.981 16.5124H134.952C134.806 17.1104 134.661 17.8728 134.5 18.4547L133.917 20.5909H136.088Z" fill="#878787"/>
<path d="M141.306 15.4349C141.976 15.0335 142.997 14.6294 144.367 14.6294C146.508 14.6294 147.777 15.7339 147.777 17.2128C147.777 18.4844 146.946 19.306 145.809 19.5889V19.6185C147.034 19.799 148.098 20.6664 148.098 22.0107C148.098 24.2682 145.896 25.044 144.061 25.044C143.04 25.044 141.933 24.8204 141.117 24.3409L141.584 22.5791C142.021 22.8188 143.04 23.1906 143.959 23.1906C145.08 23.1906 145.766 22.6976 145.766 21.8625C145.766 20.7553 144.628 20.5317 143.696 20.5317H142.763V18.8426H143.696C144.702 18.8426 145.46 18.3793 145.46 17.5738C145.46 16.9165 144.92 16.4666 143.973 16.4666C143.215 16.4666 142.37 16.7818 141.816 17.0647L141.306 15.4349Z" fill="#878787"/>
<path d="M159.248 19.7397C159.248 23.0559 157.311 25.044 154.425 25.044C151.524 25.044 149.805 22.7865 149.805 19.904C149.805 16.8842 151.699 14.6294 154.585 14.6294C157.601 14.6294 159.248 16.9461 159.248 19.7397ZM152.151 19.8582C152.151 21.8463 153.055 23.2364 154.542 23.2364C156.042 23.2364 156.902 21.7709 156.902 19.8151C156.902 17.9914 156.072 16.437 154.542 16.437C153.026 16.437 152.151 17.9025 152.151 19.8582Z" fill="#878787"/>
<path d="M169.67 21.0246C169.625 19.8151 169.582 18.3496 169.582 16.8841H169.553C169.232 18.1691 168.824 19.605 168.446 20.7849L167.25 24.7153H165.516L164.467 20.8307C164.146 19.6346 163.826 18.2014 163.577 16.8841H163.548C163.505 18.2445 163.447 19.7989 163.388 21.0543L163.199 24.8796H161.145L161.771 14.8071H164.729L165.691 18.1691C166.011 19.3356 166.303 20.5909 166.521 21.7708H166.58C166.842 20.6071 167.178 19.2763 167.513 18.1556L168.547 14.8071H171.462L171.987 24.8796H169.83L169.67 21.0246Z" fill="#878787"/>
</svg>
