<svg width="1920" height="1015" viewBox="0 0 1920 1015" fill="none" xmlns="http://www.w3.org/2000/svg">
<path d="M2497.5 323.542C2260.87 428.227 1141.5 1109.7 1141.5 580.043C1141.5 100.543 1776 489.543 1069 752.541C472.182 974.552 -277.501 573.541 -285.001 405.041" stroke="white" stroke-width="2"/>
<mask id="mask0_486_473" style="mask-type:alpha" maskUnits="userSpaceOnUse" x="0" y="87" width="1920" height="371">
<path d="M0 87H1920V458H0V87Z" fill="#C4C4C4"/>
</mask>
<g mask="url(#mask0_486_473)">
<path fill-rule="evenodd" clip-rule="evenodd" d="M2327.53 407.967C2400.7 369.887 2459.84 339.11 2497.09 322.627L2497.9 324.456C2460.7 340.915 2401.67 371.638 2328.56 409.687C2285.48 432.107 2237.52 457.071 2186.25 483.158C2048.03 553.496 1885.88 631.962 1731.12 690.605C1576.4 749.233 1428.9 788.11 1320.02 779.131C1265.55 774.639 1220.64 758.165 1189.34 726.082C1184.13 720.742 1179.31 714.974 1174.88 708.761C1143.58 723.945 1108.52 738.906 1069.35 753.478C770.64 864.594 433.757 819.783 170.67 726.174C39.1179 679.366 -74.0327 620.341 -154.784 562.456C-195.158 533.515 -227.459 504.841 -249.912 478.099C-272.343 451.384 -285.047 426.478 -286 405.085L-284.002 404.996C-283.079 425.728 -270.715 450.213 -248.381 476.813C-226.069 503.386 -193.908 531.951 -153.619 560.831C-73.0446 618.588 39.9329 677.534 171.341 724.29C434.175 817.809 770.541 862.497 1068.65 751.603C1107.65 737.094 1142.56 722.205 1173.71 707.104C1152.26 676.144 1140.5 634.402 1140.5 580.043C1140.5 459.974 1180.23 393.945 1229.11 366.848C1277.96 339.763 1335.66 351.764 1371.08 387.147C1406.56 422.594 1419.6 481.403 1379.45 547.724C1348.4 599.008 1285.55 654.778 1176.7 707.874C1181.02 713.902 1185.72 719.501 1190.77 724.686C1221.62 756.306 1266 772.67 1320.18 777.138C1428.58 786.077 1575.71 747.354 1730.41 688.735C1885.07 630.131 2047.14 551.705 2185.34 481.375C2236.54 455.325 2284.47 430.381 2327.53 407.967ZM1175.53 706.219C1284.35 653.186 1346.92 597.582 1377.74 546.688C1417.46 481.087 1404.44 423.303 1369.67 388.562C1334.83 353.759 1278.09 341.978 1230.08 368.597C1182.08 395.203 1142.5 460.361 1142.5 580.043C1142.5 634.26 1154.26 675.646 1175.53 706.219Z" fill="#6DC5FF"/>
</g>
<path d="M1298 420L1295.68 418.657C1224.57 377.752 1180.25 327.484 1180.01 287.48C1179.96 279.865 1179.85 262.015 1191.83 246.05C1207.3 225.459 1231.78 222.526 1238.91 222.121C1268.67 220.245 1289.73 240.661 1297.99 250.372C1306.2 240.643 1327.12 220.282 1357.1 222.121C1364.23 222.526 1388.71 225.468 1404.18 246.05V246.059C1416.15 262.015 1416.04 279.865 1415.99 287.48C1415.75 327.484 1371.43 377.752 1300.33 418.657L1298 420Z" fill="#07A9EE"/>
<path d="M1519.5 383L1518.33 382.329C1482.48 361.876 1460.13 336.742 1460 316.74C1459.98 312.933 1459.92 304.007 1465.97 296.025C1473.76 285.73 1486.11 284.263 1489.71 284.06C1504.71 283.122 1515.33 293.33 1519.49 298.186C1523.63 293.321 1534.19 283.141 1549.3 284.06C1552.9 284.263 1565.24 285.734 1573.04 296.025V296.03C1579.08 304.007 1579.02 312.933 1579 316.74C1578.87 336.742 1556.52 361.876 1520.67 382.329L1519.5 383Z" fill="#16B5F9"/>
<path d="M1601 222L1600.41 221.661C1582.33 211.331 1571.06 198.637 1571 188.535C1570.99 186.612 1570.96 182.105 1574.01 178.073C1577.94 172.874 1584.16 172.133 1585.98 172.031C1593.54 171.557 1598.9 176.712 1601 179.165C1603.08 176.708 1608.4 171.566 1616.02 172.031C1617.84 172.133 1624.06 172.876 1627.99 178.073V178.076C1631.04 182.105 1631.01 186.612 1631 188.535C1630.94 198.637 1619.67 211.331 1601.59 221.661L1601 222Z" fill="#6DC5FF"/>
</svg>
