<svg width="249" height="249" viewBox="0 0 249 249" fill="none" xmlns="http://www.w3.org/2000/svg">
<path d="M84.2199 22.14C82.9033 22.6565 81.6107 22.8434 80.341 22.7009C79.0718 22.5583 77.943 22.109 76.9551 21.3529L78.3021 19.5832C79.011 20.1324 79.8041 20.4678 80.6796 20.587C81.5552 20.7067 82.4629 20.5823 83.4034 20.213C84.6515 19.724 85.5025 19.0398 85.9558 18.1599C86.4097 17.2812 86.4372 16.3347 86.0389 15.3215C85.7868 14.68 85.4171 14.167 84.9311 13.7837C84.4445 13.3993 83.8731 13.1749 83.2168 13.1112C82.56 13.0475 81.8383 13.1691 81.0522 13.4776L79.18 14.212L78.4653 12.3932L80.3626 11.6488C80.9785 11.4075 81.461 11.0675 81.8114 10.6287C82.1617 10.1893 82.3728 9.69734 82.4454 9.15397C82.5173 8.60943 82.4448 8.05963 82.226 7.50282C81.9938 6.91329 81.6529 6.44821 81.2043 6.10875C80.7551 5.76929 80.2281 5.57239 79.6251 5.51689C79.0209 5.46138 78.3688 5.57122 77.6675 5.84641C76.7785 6.19522 76.0766 6.69244 75.5608 7.33806C75.0449 7.98426 74.7297 8.71343 74.6156 9.52732L72.4703 9.03828C72.675 7.85455 73.1388 6.79994 73.8611 5.87621C74.5834 4.95248 75.6111 4.22857 76.9446 3.70565C78.0559 3.26978 79.0987 3.08574 80.0719 3.15351C81.0458 3.22129 81.9032 3.51985 82.6442 4.04978C83.3853 4.57913 83.9491 5.33518 84.3351 6.31792C84.6814 7.19842 84.7808 8.09176 84.6346 8.99972C84.4878 9.90709 84.0602 10.7151 83.3519 11.4227C84.5252 11.2947 85.5622 11.5238 86.4629 12.1092C87.3636 12.6946 88.0274 13.529 88.4538 14.6134C88.8738 15.6803 88.9638 16.7016 88.7246 17.675C88.486 18.6484 87.9789 19.5172 87.2039 20.2808C86.4284 21.0445 85.4341 21.6644 84.2199 22.14Z" fill="#B7B7B7"/>
<path d="M91.0355 15.0385C90.822 14.1515 90.8922 13.3242 91.2455 12.5541C91.5981 11.7847 92.1783 11.1157 92.9861 10.5466C93.7938 9.97751 94.7869 9.551 95.9654 9.26821C96.5901 9.11747 97.2627 9.00879 97.9827 8.93868C98.7033 8.86974 99.3548 8.86857 99.9373 8.93634L99.694 7.92556C99.4402 6.87036 98.9185 6.11607 98.1295 5.66326C97.3405 5.21104 96.3567 5.12632 95.1782 5.40969C94.4097 5.59432 93.7066 5.90924 93.0679 6.35504C92.4287 6.80142 91.7789 7.37751 91.118 8.08331L89.8616 6.63023C90.622 5.78713 91.4198 5.10003 92.2555 4.56892C93.0908 4.03782 93.9997 3.65454 94.9817 3.4185C96.7673 2.98964 98.2962 3.14155 99.5689 3.87423C100.84 4.6069 101.687 5.84847 102.109 7.59895L103.52 13.4615C103.589 13.7449 103.696 13.9389 103.845 14.0429C103.993 14.148 104.203 14.1772 104.475 14.1305L104.913 15.9499C104.689 16.0411 104.495 16.1159 104.33 16.1749C104.164 16.2327 104.028 16.2759 103.921 16.3017C103.367 16.4343 102.916 16.3823 102.566 16.1457C102.216 15.909 101.983 15.6251 101.865 15.295L101.599 14.425C101.181 15.3563 100.532 16.1532 99.6531 16.817C98.774 17.4813 97.8522 17.9294 96.8878 18.1608C95.9596 18.384 95.0829 18.3933 94.2593 18.1877C93.4352 17.9826 92.7398 17.6057 92.1737 17.0577C91.6069 16.5091 91.2279 15.8354 91.0355 15.0385ZM100.379 13.829C100.533 13.5299 100.642 13.2377 100.706 12.9514C100.769 12.6652 100.78 12.4338 100.737 12.2573L100.322 10.5349C99.718 10.4566 99.098 10.4327 98.4634 10.4636C97.8283 10.4952 97.2165 10.5805 96.6269 10.7225C95.4308 11.0099 94.5179 11.4768 93.8897 12.123C93.2615 12.7692 93.0451 13.4983 93.2405 14.3105C93.3469 14.7522 93.5709 15.1518 93.9119 15.5082C94.2529 15.8658 94.6916 16.1199 95.2291 16.2713C95.7654 16.4226 96.3825 16.4138 97.079 16.2467C97.8107 16.0709 98.4722 15.7583 99.063 15.3078C99.6531 14.8579 100.092 14.3642 100.379 13.829Z" fill="#B7B7B7"/>
<path d="M107.7 15.519L106.311 1.30255L118.184 0.145698L119.573 14.3616L117.16 14.597L115.98 2.51725L108.933 3.20377L110.113 15.2841L107.7 15.519Z" fill="#B7B7B7"/>
<path d="M123.163 14.2416L123.801 0L126.223 0.10809L125.729 11.1239L134.261 0.439956L136.463 0.538113L135.823 14.8077L133.401 14.6997L133.885 3.90117L125.475 14.345L123.163 14.2416Z" fill="#B7B7B7"/>
<path d="M145.611 16.7131C144.546 16.5127 143.612 16.1376 142.809 15.589C142.006 15.0398 141.348 14.3644 140.836 13.5639C140.323 12.7635 139.973 11.8917 139.787 10.9487C139.6 10.0057 139.599 9.04165 139.784 8.05715C140.034 6.73261 140.559 5.58043 141.361 4.60061C142.162 3.62079 143.166 2.90623 144.372 2.45634C145.578 2.00645 146.894 1.91589 148.32 2.18349C149.709 2.44524 150.864 2.98394 151.786 3.80133C152.706 4.61872 153.321 5.59796 153.629 6.73846L151.163 7.03059C150.927 6.29616 150.52 5.68268 149.94 5.19073C149.359 4.69935 148.672 4.37801 147.879 4.22902C147.012 4.06601 146.18 4.14079 145.383 4.45338C144.586 4.76538 143.907 5.27077 143.346 5.96897C142.784 6.66718 142.409 7.51612 142.221 8.51522C142.036 9.4968 142.081 10.4246 142.355 11.2981C142.63 12.1722 143.08 12.9078 143.706 13.5061C144.332 14.1038 145.078 14.4847 145.944 14.6471C146.503 14.7523 147.059 14.7546 147.611 14.6524C148.163 14.5513 148.664 14.3702 149.115 14.109C149.566 13.8484 149.901 13.5335 150.12 13.1637L152.316 14.3048C151.898 14.9358 151.346 15.4622 150.659 15.8835C149.972 16.3053 149.198 16.5939 148.338 16.7493C147.477 16.9048 146.568 16.8931 145.611 16.7131Z" fill="#B7B7B7"/>
<path d="M160.77 20.3361L166.224 7.13221L168.465 8.05653L166.216 13.5008L173.144 16.3555L175.392 10.9113L177.633 11.8356L172.179 25.0389L169.939 24.1152L172.324 18.3403L165.396 15.4849L163.011 21.2599L160.77 20.3361Z" fill="#B7B7B7"/>
<path d="M176.538 22.5569C177.001 21.7711 177.627 21.2236 178.416 20.9151C179.205 20.6072 180.088 20.5283 181.065 20.6796C182.041 20.831 183.052 21.2131 184.097 21.8277C184.651 22.1538 185.211 22.5417 185.777 22.9916C186.343 23.4415 186.812 23.8931 187.184 24.3459L187.712 23.4497C188.263 22.5148 188.413 21.6104 188.16 20.7375C187.907 19.864 187.259 19.1202 186.214 18.5062C185.533 18.1059 184.808 17.8442 184.039 17.7215C183.268 17.5994 182.401 17.5626 181.434 17.6116L181.541 15.6941C182.674 15.6158 183.726 15.6754 184.697 15.8729C185.666 16.0715 186.587 16.4256 187.458 16.938C189.04 17.8687 190.034 19.039 190.44 20.4489C190.845 21.8593 190.591 23.3398 189.676 24.8916L186.615 30.0876C186.467 30.3382 186.409 30.5526 186.443 30.7308C186.477 30.909 186.608 31.0756 186.836 31.231L185.885 32.8436C185.661 32.7536 185.469 32.673 185.309 32.6005C185.149 32.5275 185.023 32.4638 184.927 32.4077C184.436 32.1191 184.148 31.7685 184.061 31.3554C183.974 30.9423 184.003 30.5766 184.149 30.2576L184.562 29.4466C183.614 29.8264 182.593 29.9491 181.499 29.817C180.404 29.6844 179.43 29.3672 178.575 28.8647C177.752 28.3803 177.116 27.7785 176.666 27.0593C176.216 26.3395 175.978 25.5863 175.952 24.7987C175.926 24.0106 176.121 23.2639 176.538 22.5569ZM184.099 28.1706C184.418 28.0636 184.7 27.9287 184.945 27.7674C185.189 27.605 185.358 27.4461 185.45 27.2895L186.35 25.7634C185.969 25.2866 185.54 24.8396 185.062 24.4213C184.584 24.0036 184.084 23.6401 183.562 23.3328C182.501 22.71 181.52 22.412 180.618 22.4406C179.717 22.4693 179.054 22.8438 178.63 23.5636C178.399 23.9551 178.282 24.3974 178.279 24.8911C178.277 25.3848 178.415 25.872 178.696 26.3535C178.977 26.8349 179.427 27.2568 180.044 27.6202C180.693 28.0017 181.386 28.236 182.124 28.3219C182.862 28.4078 183.521 28.3575 184.099 28.1706Z" fill="#B7B7B7"/>
<path d="M193.795 38.7522L203.298 28.0793L205.109 29.6895L201.21 34.0692L202.403 35.1303L209.679 33.7502L211.738 35.579L203.128 37.174L202.708 46.6719L200.609 44.8069L200.92 36.796L199.726 35.735L195.606 40.3618L193.795 38.7522Z" fill="#B7B7B7"/>
<path d="M207.594 52.6261C206.884 51.8076 206.389 50.9376 206.108 50.0156C205.827 49.0936 205.735 48.1664 205.83 47.2339C205.926 46.3014 206.197 45.411 206.644 44.5638C207.091 43.7154 207.686 42.9699 208.43 42.326C209.188 41.6705 210.019 41.182 210.923 40.8607C211.826 40.5399 212.747 40.3985 213.685 40.4371C214.622 40.4751 215.531 40.7029 216.41 41.1189C217.29 41.5349 218.084 42.1519 218.794 42.9705C219.491 43.775 219.98 44.6386 220.262 45.56C220.542 46.4825 220.638 47.4127 220.548 48.3522C220.458 49.2917 220.19 50.1856 219.743 51.0328C219.296 51.8812 218.694 52.6326 217.936 53.2887C217.192 53.9326 216.368 54.4146 215.465 54.7359C214.561 55.0561 213.64 55.1975 212.703 55.1595C211.765 55.121 210.856 54.8937 209.977 54.4777C209.098 54.0611 208.303 53.4441 207.594 52.6261ZM210.033 44.2156C209.292 44.8577 208.759 45.6038 208.437 46.4522C208.115 47.3017 208.014 48.1483 208.133 48.992C208.251 49.8363 208.599 50.5911 209.177 51.2566C209.753 51.9221 210.458 52.3743 211.29 52.6127C212.123 52.8517 212.986 52.8698 213.88 52.6665C214.773 52.4631 215.591 52.0407 216.334 51.3986C217.076 50.7565 217.608 50.0109 217.93 49.162C218.251 48.3125 218.353 47.46 218.236 46.6029C218.118 45.7458 217.771 44.9845 217.193 44.3196C216.616 43.6535 215.911 43.2083 215.078 42.9822C214.244 42.7561 213.385 42.742 212.497 42.9389C211.61 43.1358 210.789 43.5623 210.033 44.2156Z" fill="#B7B7B7"/>
<path d="M214.069 60.0804L226.117 52.3873L227.423 54.4276L222.455 57.6002L226.491 63.9068L231.459 60.7354L232.764 62.7757L220.717 70.4694L219.412 68.4279L224.681 65.0637L220.645 58.7559L215.375 62.1213L214.069 60.0804Z" fill="#B7B7B7"/>
<path d="M224.818 79.5735C224.368 78.5885 224.137 77.6104 224.123 76.6382C224.11 75.6659 224.282 74.7399 224.643 73.86C225.002 72.9801 225.514 72.1925 226.177 71.4966C226.841 70.8001 227.629 70.2439 228.542 69.8279C229.769 69.2682 231.014 69.0333 232.277 69.1233C233.541 69.2121 234.704 69.6199 235.767 70.3456C236.83 71.0707 237.663 72.0926 238.265 73.4107C238.852 74.6961 239.077 75.9499 238.94 77.1728C238.801 78.3951 238.355 79.4614 237.6 80.3705L235.939 78.5259C236.404 77.9101 236.671 77.2236 236.739 76.4664C236.807 75.7098 236.673 74.9637 236.338 74.2298C235.972 73.4282 235.431 72.7925 234.716 72.3216C234.001 71.8507 233.197 71.5877 232.302 71.5317C231.407 71.4756 230.497 71.659 229.571 72.0815C228.661 72.4963 227.928 73.0671 227.372 73.7951C226.815 74.5231 226.473 75.3142 226.344 76.1702C226.215 77.025 226.334 77.8535 226.7 78.6551C226.937 79.1716 227.255 79.6273 227.657 80.0188C228.058 80.4108 228.495 80.7152 228.968 80.9337C229.441 81.1511 229.891 81.2434 230.321 81.2095L230.653 83.6593C229.896 83.6821 229.147 83.5337 228.406 83.2165C227.665 82.8992 226.983 82.433 226.36 81.8206C225.736 81.2072 225.222 80.4581 224.818 79.5735Z" fill="#B7B7B7"/>
<path d="M223.243 90.5896C223.152 90.2904 223.104 89.9743 223.098 89.6407C223.094 89.3065 223.13 88.9548 223.21 88.5855L225.032 88.8964C224.992 89.081 224.973 89.2545 224.974 89.4175C224.976 89.5794 224.997 89.7307 225.04 89.8721C225.168 90.2928 225.484 90.6334 225.986 90.8934C226.49 91.1528 227.189 91.3293 228.085 91.4222L229.916 91.5857L241.548 81.4726L242.292 83.9219L232.424 91.9755L244.973 92.7444L245.669 95.0359L227.909 93.4023C227.032 93.3228 226.275 93.1592 225.641 92.9109C225.006 92.662 224.486 92.3406 224.081 91.9457C223.677 91.5501 223.397 91.0979 223.243 90.5896Z" fill="#B7B7B7"/>
<path d="M232.206 100.067L234.356 99.7285C234.43 100.199 234.617 100.602 234.917 100.936C235.216 101.269 235.68 101.536 236.305 101.734C236.932 101.933 237.772 102.038 238.826 102.048C239.88 102.059 241.206 101.967 242.804 101.771L246.875 101.298L248.396 110.949L234.38 113.154L234.003 110.761L245.896 108.891L245.086 103.752L242.908 104.039C240.986 104.267 239.37 104.354 238.062 104.3C236.754 104.245 235.698 104.049 234.895 103.711C234.091 103.373 233.476 102.899 233.051 102.288C232.625 101.676 232.343 100.937 232.206 100.067Z" fill="#B7B7B7"/>
<path d="M234.529 116.805L248.823 116.456L248.882 118.877L244.007 118.996L244.094 122.573C244.136 124.26 243.742 125.55 242.915 126.442C242.088 127.333 240.989 127.797 239.621 127.83C238.708 127.852 237.881 127.684 237.143 127.326C236.403 126.968 235.814 126.427 235.376 125.704C234.938 124.98 234.707 124.068 234.68 122.968L234.529 116.805ZM236.488 119.18L236.572 122.591C236.588 123.27 236.733 123.812 237.007 124.219C237.281 124.625 237.639 124.923 238.08 125.115C238.521 125.305 238.996 125.395 239.505 125.383C239.996 125.371 240.448 125.267 240.862 125.074C241.276 124.88 241.605 124.569 241.849 124.142C242.094 123.713 242.207 123.132 242.189 122.399L242.107 119.042L236.488 119.18Z" fill="#B7B7B7"/>
<path d="M234.296 133.869L246.391 135.019L246.861 130.087L249 130.291L247.83 142.565L245.691 142.362L246.161 137.43L234.066 136.28L234.296 133.869Z" fill="#B7B7B7"/>
<path d="M237.495 143.206C238.385 143.407 239.097 143.836 239.631 144.493C240.165 145.151 240.509 145.966 240.663 146.942C240.816 147.917 240.758 148.995 240.491 150.177C240.348 150.803 240.148 151.454 239.892 152.129C239.635 152.805 239.348 153.389 239.029 153.881L240.044 154.111C241.104 154.351 242.011 154.217 242.767 153.711C243.523 153.205 244.034 152.361 244.302 151.18C244.477 150.41 244.505 149.641 244.388 148.871C244.271 148.101 244.041 147.265 243.7 146.36L245.561 145.878C245.981 146.932 246.244 147.951 246.351 148.934C246.458 149.918 246.399 150.902 246.176 151.886C245.77 153.675 244.957 154.978 243.736 155.793C242.515 156.607 241.025 156.816 239.268 156.418L233.381 155.086C233.097 155.021 232.874 155.033 232.715 155.119C232.555 155.205 232.436 155.38 232.358 155.645L230.531 155.232C230.548 154.99 230.566 154.783 230.587 154.609C230.608 154.435 230.63 154.295 230.655 154.187C230.78 153.632 231.027 153.25 231.395 153.042C231.762 152.834 232.12 152.75 232.468 152.792L233.367 152.938C232.716 152.151 232.288 151.217 232.082 150.136C231.875 149.055 231.881 148.031 232.1 147.065C232.311 146.133 232.691 145.345 233.24 144.698C233.79 144.051 234.435 143.595 235.179 143.331C235.922 143.066 236.694 143.025 237.495 143.206ZM234.442 152.109C234.642 152.38 234.856 152.607 235.085 152.791C235.314 152.974 235.517 153.086 235.694 153.126L237.423 153.517C237.762 153.011 238.057 152.466 238.311 151.884C238.564 151.302 238.758 150.715 238.892 150.125C239.164 148.926 239.149 147.902 238.848 147.053C238.546 146.204 237.987 145.688 237.171 145.503C236.728 145.403 236.27 145.426 235.799 145.574C235.327 145.721 234.905 146.001 234.531 146.415C234.158 146.829 233.892 147.385 233.733 148.083C233.567 148.816 233.555 149.548 233.698 150.276C233.84 151.004 234.089 151.615 234.442 152.109Z" fill="#B7B7B7"/>
<path d="M222.496 167.295L225.664 168.499L229.701 157.902L243.064 162.983L242.202 165.246L230.822 160.919L228.45 167.143L239.83 171.471L238.968 173.735L227.587 169.407L226.882 171.259L221.732 169.301L222.496 167.295Z" fill="#B7B7B7"/>
<path d="M223.577 172.735L236.43 179.179L235.342 181.344L222.489 174.9L223.577 172.735ZM238.843 180.389L241.551 181.747L240.463 183.912L237.755 182.554L238.843 180.389Z" fill="#B7B7B7"/>
<path d="M214.199 188.032C214.905 186.981 215.756 186.204 216.752 185.7C217.748 185.197 218.807 184.968 219.928 185.013C221.049 185.057 222.152 185.365 223.237 185.939L224.727 183.722L219.694 180.348L221.045 178.337L232.917 186.297L231.566 188.308L226.488 184.903L224.998 187.119C225.959 187.94 226.671 188.865 227.132 189.892C227.593 190.919 227.771 191.984 227.667 193.085C227.563 194.187 227.168 195.248 226.482 196.268C225.674 197.472 224.701 198.323 223.566 198.821C222.429 199.318 221.241 199.494 220 199.347C218.76 199.2 217.564 198.741 216.414 197.97C215.233 197.178 214.342 196.233 213.741 195.134C213.14 194.034 212.869 192.869 212.928 191.638C212.987 190.407 213.41 189.205 214.199 188.032ZM215.937 189.198C215.436 189.944 215.184 190.726 215.182 191.542C215.181 192.359 215.401 193.147 215.843 193.907C216.284 194.668 216.935 195.336 217.796 195.913C218.701 196.52 219.592 196.88 220.469 196.993C221.346 197.105 222.157 196.998 222.903 196.669C223.649 196.341 224.263 195.819 224.744 195.103C225.225 194.387 225.468 193.626 225.471 192.823C225.475 192.019 225.248 191.242 224.788 190.492C224.329 189.742 223.661 189.073 222.786 188.487C221.895 187.889 221.013 187.524 220.139 187.391C219.266 187.258 218.464 187.351 217.735 187.669C217.007 187.987 216.408 188.497 215.937 189.198Z" fill="#B7B7B7"/>
<path d="M164.149 227.091C165.469 226.582 166.763 226.403 168.032 226.553C169.3 226.703 170.426 227.159 171.409 227.921L170.053 229.683C169.347 229.129 168.556 228.789 167.681 228.664C166.806 228.54 165.898 228.659 164.955 229.022C163.704 229.504 162.849 230.184 162.391 231.06C161.932 231.937 161.899 232.883 162.291 233.899C162.539 234.541 162.906 235.056 163.39 235.443C163.874 235.83 164.444 236.058 165.1 236.125C165.757 236.193 166.479 236.075 167.267 235.771L169.143 235.048L169.847 236.871L167.945 237.604C167.329 237.842 166.844 238.179 166.491 238.616C166.138 239.053 165.924 239.544 165.848 240.087C165.773 240.631 165.843 241.182 166.058 241.739C166.287 242.33 166.625 242.797 167.071 243.14C167.519 243.481 168.044 243.682 168.648 243.741C169.251 243.799 169.904 243.693 170.606 243.422C171.498 243.079 172.203 242.586 172.723 241.943C173.242 241.3 173.561 240.572 173.68 239.76L175.823 240.261C175.611 241.444 175.141 242.495 174.413 243.415C173.686 244.334 172.654 245.052 171.317 245.567C170.203 245.997 169.159 246.175 168.186 246.101C167.213 246.028 166.357 245.724 165.62 245.19C164.882 244.656 164.323 243.897 163.942 242.912C163.601 242.029 163.507 241.136 163.659 240.229C163.81 239.322 164.242 238.517 164.955 237.813C163.781 237.934 162.746 237.699 161.848 237.109C160.951 236.518 160.292 235.68 159.872 234.593C159.459 233.523 159.374 232.502 159.619 231.53C159.863 230.557 160.376 229.691 161.155 228.933C161.935 228.174 162.933 227.56 164.149 227.091Z" fill="#B7B7B7"/>
<path d="M157.292 234.152C157.5 235.039 157.425 235.867 157.068 236.634C156.71 237.401 156.126 238.068 155.315 238.632C154.505 239.196 153.509 239.616 152.329 239.893C151.703 240.039 151.03 240.145 150.309 240.21C149.589 240.275 148.937 240.272 148.355 240.201L148.592 241.213C148.84 242.27 149.357 243.027 150.144 243.484C150.93 243.942 151.914 244.032 153.093 243.756C153.862 243.576 154.568 243.265 155.209 242.822C155.85 242.38 156.504 241.808 157.169 241.106L158.417 242.566C157.652 243.405 156.85 244.087 156.011 244.614C155.173 245.139 154.261 245.518 153.278 245.748C151.49 246.167 149.962 246.005 148.694 245.266C147.426 244.525 146.587 243.279 146.175 241.526L144.798 235.655C144.732 235.372 144.625 235.177 144.477 235.071C144.33 234.966 144.12 234.936 143.848 234.981L143.421 233.159C143.645 233.068 143.839 232.995 144.005 232.937C144.171 232.88 144.307 232.838 144.414 232.813C144.969 232.683 145.42 232.737 145.769 232.977C146.117 233.215 146.349 233.5 146.464 233.832L146.725 234.703C147.149 233.774 147.802 232.981 148.685 232.322C149.568 231.663 150.492 231.22 151.458 230.994C152.388 230.777 153.265 230.773 154.087 230.983C154.91 231.193 155.603 231.574 156.166 232.125C156.729 232.677 157.105 233.352 157.292 234.152ZM147.942 235.306C147.786 235.604 147.675 235.896 147.61 236.182C147.545 236.467 147.533 236.699 147.574 236.876L147.979 238.6C148.583 238.682 149.203 238.71 149.838 238.683C150.473 238.655 151.085 238.572 151.676 238.434C152.874 238.154 153.789 237.692 154.421 237.05C155.053 236.408 155.274 235.68 155.083 234.866C154.979 234.424 154.758 234.023 154.419 233.664C154.08 233.305 153.643 233.049 153.106 232.894C152.57 232.74 151.953 232.744 151.256 232.907C150.523 233.079 149.86 233.388 149.266 233.834C148.673 234.281 148.232 234.772 147.942 235.306Z" fill="#B7B7B7"/>
<path d="M140.638 233.574L141.945 247.798L130.066 248.888L128.759 234.663L131.173 234.442L132.284 246.528L139.335 245.881L138.224 233.795L140.638 233.574Z" fill="#B7B7B7"/>
<path d="M125.162 234.762L124.443 249L122.021 248.878L122.578 237.864L113.986 248.5L111.784 248.389L112.505 234.123L114.927 234.245L114.381 245.04L122.851 234.645L125.162 234.762Z" fill="#B7B7B7"/>
<path d="M102.745 232.166C103.809 232.372 104.741 232.753 105.54 233.306C106.34 233.86 106.994 234.539 107.502 235.342C108.01 236.145 108.355 237.019 108.536 237.963C108.718 238.907 108.713 239.871 108.522 240.855C108.265 242.178 107.733 243.327 106.926 244.302C106.119 245.278 105.111 245.986 103.903 246.429C102.695 246.872 101.378 246.956 99.9533 246.679C98.5654 246.411 97.4132 245.865 96.4967 245.042C95.5813 244.22 94.9719 243.237 94.6701 242.095L97.1377 241.816C97.3693 242.553 97.7729 243.168 98.3501 243.663C98.928 244.158 99.6135 244.483 100.407 244.637C101.272 244.804 102.104 244.734 102.903 244.427C103.702 244.119 104.384 243.618 104.949 242.922C105.515 242.228 105.894 241.381 106.088 240.383C106.278 239.402 106.239 238.474 105.969 237.599C105.7 236.723 105.254 235.985 104.631 235.384C104.009 234.782 103.265 234.397 102.4 234.23C101.841 234.122 101.286 234.116 100.733 234.215C100.181 234.313 99.6784 234.491 99.2257 234.75C98.7736 235.008 98.4367 235.321 98.2156 235.689L96.0258 234.536C96.4475 233.907 97.0032 233.384 97.6922 232.966C98.3811 232.549 99.1567 232.265 100.018 232.114C100.88 231.963 101.789 231.981 102.745 232.166Z" fill="#B7B7B7"/>
<path d="M87.6006 228.454L82.0712 241.626L79.8352 240.689L82.1151 235.258L75.2047 232.363L72.9249 237.794L70.6889 236.858L76.2183 223.685L78.4543 224.622L76.0358 230.383L82.9462 233.278L85.3647 227.517L87.6006 228.454Z" fill="#B7B7B7"/>
<path d="M71.8515 226.145C71.3842 226.928 70.7548 227.471 69.9641 227.775C69.1733 228.079 68.2902 228.153 67.3146 227.996C66.339 227.84 65.3301 227.451 64.289 226.831C63.7369 226.502 63.1795 226.111 62.6157 225.658C62.0524 225.204 61.5857 224.751 61.216 224.295L60.6826 225.189C60.1264 226.121 59.972 227.024 60.2194 227.899C60.4674 228.773 61.1119 229.52 62.153 230.141C62.8315 230.545 63.555 230.811 64.3241 230.937C65.0932 231.064 65.9612 231.106 66.9274 231.062L66.8098 232.979C65.6763 233.051 64.6247 232.986 63.6556 232.782C62.6864 232.579 61.7682 232.219 60.9002 231.702C59.3234 230.762 58.3355 229.586 57.9384 228.174C57.5413 226.762 57.8039 225.283 58.7268 223.736L61.8185 218.557C61.9676 218.307 62.0261 218.093 61.9934 217.915C61.9612 217.736 61.8308 217.569 61.6032 217.413L62.563 215.805C62.787 215.896 62.9783 215.978 63.1374 216.051C63.297 216.126 63.424 216.19 63.5187 216.246C64.0077 216.538 64.2948 216.89 64.3791 217.304C64.4639 217.717 64.4323 218.083 64.2849 218.401L63.8667 219.21C64.8171 218.835 65.8389 218.719 66.9321 218.857C68.0258 218.995 68.9984 219.319 69.85 219.826C70.6706 220.315 71.3034 220.92 71.7491 221.642C72.1954 222.364 72.4288 223.119 72.4504 223.906C72.472 224.694 72.2726 225.441 71.8515 226.145ZM64.3223 220.488C64.003 220.593 63.7205 220.727 63.4748 220.887C63.2298 221.047 63.0602 221.206 62.9672 221.362L62.0589 222.883C62.4367 223.361 62.8631 223.811 63.3386 224.232C63.8147 224.653 64.3124 225.019 64.8329 225.329C65.8904 225.958 66.8695 226.261 67.7708 226.238C68.6721 226.214 69.3371 225.844 69.7652 225.126C69.998 224.736 70.1179 224.294 70.1237 223.801C70.1296 223.307 69.9933 222.819 69.7149 222.336C69.4371 221.853 68.9897 221.428 68.3744 221.061C67.7281 220.676 67.0362 220.439 66.2986 220.348C65.5611 220.258 64.9025 220.305 64.3223 220.488Z" fill="#B7B7B7"/>
<path d="M54.6817 209.849L45.1177 220.467L43.3157 218.847L47.2403 214.489L46.0524 213.422L38.7689 214.76L36.7206 212.92L45.3394 211.374L45.8132 201.878L47.9023 203.756L47.545 211.765L48.7329 212.832L52.8791 208.229L54.6817 209.849Z" fill="#B7B7B7"/>
<path d="M40.9608 195.897C41.6656 196.72 42.1557 197.593 42.4312 198.516C42.7072 199.44 42.7944 200.368 42.6932 201.3C42.5926 202.231 42.3159 203.12 41.8644 203.966C41.4129 204.81 40.8128 205.553 40.0653 206.193C39.3038 206.844 38.4704 207.327 37.5644 207.644C36.659 207.959 35.7378 208.095 34.8003 208.051C33.8627 208.008 32.9561 207.776 32.0782 207.354C31.2015 206.933 30.4107 206.311 29.7054 205.489C29.0129 204.681 28.5286 203.815 28.2525 202.891C27.9771 201.967 27.887 201.037 27.9817 200.098C28.0771 199.159 28.3502 198.267 28.8017 197.421C29.2539 196.576 29.8604 195.827 30.6219 195.176C31.3694 194.537 32.1964 194.059 33.1018 193.743C34.0072 193.427 34.9283 193.292 35.8659 193.335C36.8035 193.379 37.7106 193.611 38.5879 194.032C39.4647 194.454 40.256 195.075 40.9608 195.897ZM38.4733 204.293C39.2184 203.656 39.7553 202.913 40.0817 202.066C40.4086 201.219 40.5151 200.373 40.4011 199.528C40.2876 198.683 39.9437 197.927 39.3705 197.258C38.7967 196.589 38.0949 196.133 37.2638 195.889C36.4332 195.646 35.57 195.623 34.6751 195.821C33.7802 196.019 32.9591 196.437 32.2133 197.075C31.4682 197.713 30.9319 198.456 30.6049 199.302C30.2786 200.15 30.1715 201.002 30.2844 201.86C30.3973 202.718 30.74 203.481 31.3138 204.15C31.887 204.819 32.59 205.268 33.4217 205.499C34.2534 205.729 35.1138 205.749 36.0016 205.557C36.89 205.364 37.7141 204.943 38.4733 204.293Z" fill="#B7B7B7"/>
<path d="M34.5269 188.404L22.4357 196.028L21.1419 193.98L26.1274 190.836L22.1274 184.506L17.1419 187.65L15.8476 185.601L27.9394 177.978L29.2331 180.026L23.9447 183.36L27.9446 189.691L33.2331 186.356L34.5269 188.404Z" fill="#B7B7B7"/>
<path d="M23.8909 168.853C24.3354 169.841 24.5606 170.821 24.5688 171.792C24.577 172.765 24.3986 173.69 24.0336 174.568C23.6693 175.445 23.1534 176.231 22.4855 176.922C21.8175 177.615 21.0268 178.166 20.112 178.577C18.8814 179.13 17.6351 179.358 16.3717 179.261C15.109 179.164 13.948 178.75 12.8894 178.019C11.8307 177.288 11.0037 176.261 10.4089 174.939C9.8287 173.65 9.61113 172.395 9.75618 171.173C9.90123 169.951 10.3539 168.888 11.1143 167.983L12.7642 169.837C12.2957 170.45 12.0249 171.135 11.9524 171.892C11.8805 172.648 12.0097 173.395 12.3408 174.131C12.7022 174.934 13.2391 175.573 13.9515 176.048C14.6633 176.523 15.4663 176.791 16.3612 176.852C17.2555 176.913 18.1667 176.735 19.0949 176.318C20.0073 175.908 20.7437 175.341 21.304 174.617C21.8649 173.892 22.2117 173.103 22.3457 172.248C22.479 171.393 22.365 170.564 22.0035 169.761C21.7702 169.243 21.4543 168.786 21.0549 168.392C20.6566 167.998 20.2214 167.69 19.7488 167.469C19.2774 167.249 18.8271 167.155 18.3978 167.186L18.0796 164.734C18.837 164.716 19.5851 164.868 20.3238 165.19C21.063 165.512 21.7427 165.981 22.3621 166.598C22.982 167.215 23.4915 167.967 23.8909 168.853Z" fill="#B7B7B7"/>
<path d="M25.5322 157.85C25.6211 158.149 25.6673 158.465 25.6708 158.799C25.6743 159.133 25.6351 159.484 25.5538 159.853L23.7337 159.532C23.7746 159.348 23.7945 159.174 23.7945 159.012C23.7933 158.85 23.7728 158.698 23.7307 158.557C23.605 158.135 23.2915 157.793 22.7902 157.53C22.2878 157.267 21.5901 157.087 20.6952 156.989L18.8645 156.815L7.17516 166.861L6.44464 164.408L16.3589 156.41L3.81503 155.57L3.13189 153.276L20.8824 155.01C21.7591 155.094 22.5142 155.262 23.1476 155.514C23.781 155.767 24.2986 156.091 24.7016 156.489C25.1029 156.886 25.3807 157.34 25.5322 157.85Z" fill="#B7B7B7"/>
<path d="M16.6201 148.309L14.4683 148.634C14.3964 148.164 14.2122 147.76 13.9145 147.424C13.6168 147.089 13.1553 146.82 12.5306 146.618C11.9054 146.415 11.0661 146.306 10.0122 146.289C8.9582 146.272 7.6317 146.357 6.03264 146.543L1.95896 146.993L0.493841 137.332L14.5222 135.21L14.8854 137.605L2.98191 139.406L3.76156 144.549L5.94199 144.275C7.86565 144.057 9.48108 143.98 10.7889 144.042C12.0967 144.104 13.1512 144.306 13.9531 144.649C14.7544 144.992 15.3667 145.469 15.789 146.083C16.2107 146.696 16.4879 147.438 16.6201 148.309Z" fill="#B7B7B7"/>
<path d="M14.3953 131.562L0.0990736 131.831L0.0534531 129.409L4.929 129.318L4.86174 125.741C4.83016 124.053 5.2308 122.766 6.06308 121.878C6.89536 120.991 7.9961 120.534 9.3653 120.509C10.2789 120.491 11.1036 120.664 11.8411 121.026C12.578 121.388 13.1635 121.933 13.5975 122.659C14.0315 123.384 14.2584 124.298 14.2789 125.399L14.3953 131.562ZM12.4488 129.177L12.3844 125.765C12.3722 125.086 12.23 124.542 11.9581 124.135C11.6873 123.727 11.3311 123.426 10.8907 123.232C10.4508 123.039 9.97592 122.947 9.46649 122.957C8.97578 122.966 8.52308 123.066 8.1084 123.257C7.69314 123.449 7.36268 123.758 7.11586 124.184C6.86904 124.611 6.75265 125.191 6.76669 125.925L6.82986 129.282L12.4488 129.177Z" fill="#B7B7B7"/>
<path d="M14.7243 114.5L2.63605 113.281L2.13832 118.21L0 117.994L1.23994 105.727L3.37767 105.942L2.87994 110.871L14.9676 112.091L14.7243 114.5Z" fill="#B7B7B7"/>
<path d="M11.5769 105.157C10.6879 104.951 9.97783 104.518 9.44735 103.858C8.91686 103.198 8.57822 102.38 8.43024 101.403C8.28285 100.427 8.34602 99.3497 8.62091 98.1701C8.76655 97.5443 8.9695 96.8946 9.22977 96.2204C9.49063 95.5461 9.7819 94.9642 10.103 94.4734L9.0894 94.2385C8.03135 93.9926 7.12245 94.1205 6.36387 94.623C5.60586 95.1243 5.08883 95.9656 4.81452 97.1447C4.63555 97.9136 4.6028 98.6825 4.71568 99.4526C4.82914 100.224 5.05315 101.062 5.38887 101.968L3.52545 102.44C3.11194 101.383 2.85459 100.363 2.75341 99.379C2.65281 98.3945 2.71598 97.4111 2.94467 96.4284C3.36051 94.6411 4.18168 93.3434 5.40759 92.5354C6.63291 91.7279 8.12377 91.5275 9.87899 91.9353L15.7582 93.3002C16.0424 93.3668 16.2641 93.3575 16.4238 93.2716C16.5846 93.1869 16.7039 93.0116 16.7841 92.7475L18.6089 93.1717C18.5902 93.4124 18.5703 93.6192 18.5492 93.7933C18.527 93.9674 18.5042 94.1077 18.479 94.2152C18.3504 94.7691 18.1018 95.1494 17.7327 95.3557C17.3643 95.5625 17.0057 95.6437 16.6577 95.6005L15.7594 95.448C16.4056 96.2391 16.8285 97.1757 17.0291 98.2583C17.2297 99.3404 17.218 100.364 16.9935 101.329C16.777 102.259 16.3922 103.046 15.8401 103.69C15.2868 104.334 14.6387 104.786 13.8936 105.046C13.149 105.306 12.3764 105.343 11.5769 105.157ZM14.6797 96.2712C14.4814 95.9995 14.2685 95.7705 14.0404 95.5859C13.8129 95.4012 13.6105 95.2879 13.4339 95.247L11.7067 94.8462C11.3652 95.351 11.0663 95.8938 10.8095 96.4745C10.5534 97.0559 10.3562 97.6402 10.2188 98.2303C9.9404 99.428 9.94917 100.452 10.2463 101.302C10.5428 102.153 11.0985 102.673 11.9132 102.862C12.3559 102.965 12.8139 102.944 13.2859 102.799C13.7585 102.655 14.1825 102.377 14.5586 101.965C14.9347 101.554 15.2031 100.999 15.3657 100.302C15.5359 99.5688 15.5523 98.8379 15.4143 98.1087C15.2757 97.3802 15.0306 96.7673 14.6797 96.2712Z" fill="#B7B7B7"/>
<path d="M26.7169 81.1438L23.5568 79.9215L19.458 90.4945L6.12451 85.3365L6.99949 83.0783L18.3555 87.4715L20.7629 81.2606L9.40743 76.8675L10.283 74.6093L21.6384 79.0019L22.3543 77.1544L27.493 79.1421L26.7169 81.1438Z" fill="#B7B7B7"/>
<path d="M10.4531 67.9394L7.75273 66.5658L8.85288 64.4075L11.5533 65.7817L10.4531 67.9394ZM25.674 75.6839L12.8593 69.1641L13.9595 67.0058L26.7741 73.5257L25.674 75.6839Z" fill="#B7B7B7"/>
<path d="M35.1387 60.4457C34.4263 61.4927 33.5706 62.2651 32.5717 62.7629C31.5727 63.2601 30.5129 63.4828 29.3917 63.4313C28.2711 63.3811 27.1697 63.0656 26.0883 62.4866L24.5863 64.6945L29.5987 68.0985L28.236 70.1014L16.4109 62.0717L17.7736 60.0689L22.8317 63.5032L24.3342 61.2952C23.3774 60.4691 22.672 59.5401 22.2164 58.51C21.7619 57.4805 21.5894 56.4154 21.6999 55.3141C21.8105 54.2139 22.2111 53.1546 22.903 52.1374C23.7189 50.9396 24.6963 50.0936 25.835 49.6028C26.9738 49.1115 28.1628 48.9426 29.4028 49.0969C30.6427 49.2517 31.8359 49.7173 32.9817 50.4956C34.1579 51.2937 35.0428 52.2443 35.6376 53.3468C36.2318 54.4493 36.4962 55.6161 36.4301 56.8466C36.364 58.0783 35.9336 59.2772 35.1387 60.4457ZM33.4069 59.2702C33.9128 58.5264 34.1696 57.7464 34.1754 56.9296C34.1813 56.1128 33.966 55.3234 33.5291 54.5609C33.0916 53.7979 32.4447 53.126 31.5879 52.544C30.6854 51.9311 29.7964 51.566 28.9209 51.448C28.0447 51.3311 27.2329 51.4339 26.4848 51.7576C25.7368 52.0819 25.1203 52.6001 24.6349 53.3135C24.1494 54.0269 23.9026 54.7853 23.8944 55.5893C23.8856 56.3932 24.1091 57.1715 24.5641 57.924C25.0185 58.6771 25.6824 59.3496 26.5544 59.9409C27.4417 60.5439 28.3214 60.9137 29.1946 61.0516C30.0678 61.1901 30.8697 61.1024 31.5996 60.7881C32.3295 60.4738 32.932 59.9678 33.4069 59.2702Z" fill="#B7B7B7"/>
</svg>
