<svg width="332" height="283" viewBox="0 0 332 283" fill="none" xmlns="http://www.w3.org/2000/svg">
<path d="M166.006 283L162.738 281.081C62.7051 222.615 0.356384 150.768 0.00900104 93.5899C-0.0553289 82.7063 -0.209759 57.1931 16.6447 34.3745C38.4012 4.94434 72.8435 0.751291 82.879 0.172939C124.732 -2.50851 154.363 26.672 165.981 40.5524C177.534 26.6457 206.972 -2.45593 249.134 0.172939C259.169 0.751291 293.612 4.95748 315.368 34.3745C332.21 57.18 332.055 82.7063 331.991 93.5899C331.644 150.768 269.295 222.615 169.274 281.081L166.006 283Z" fill="#019BDD"/>
<path d="M195.787 111.349C196.545 111.217 197.608 111.117 199.106 111.117C200.619 111.117 201.699 111.415 202.424 112.008C203.132 112.57 203.584 113.493 203.584 114.581C203.584 115.668 203.246 116.609 202.585 117.219C201.747 118.011 200.507 118.39 199.057 118.39C198.735 118.39 198.446 118.374 198.219 118.323V122.314H195.787V111.349ZM198.219 116.394C198.43 116.444 198.671 116.461 199.041 116.461C200.346 116.461 201.151 115.784 201.151 114.664C201.151 113.641 200.458 113.03 199.218 113.03C198.735 113.03 198.396 113.063 198.219 113.114V116.394Z" fill="white"/>
<path d="M204.888 122.314C205.114 121.951 205.291 121.521 205.436 121.077C205.87 119.808 206.128 118.488 206.95 117.681C207.191 117.449 207.498 117.251 207.852 117.119V117.07C206.644 116.84 205.565 115.966 205.565 114.35C205.565 113.328 206.015 112.519 206.692 111.991C207.529 111.349 208.835 111.117 210.252 111.117C211.444 111.117 212.57 111.217 213.36 111.349V122.314H210.928V117.96H210.332C209.85 117.96 209.462 118.109 209.173 118.39C208.48 119.048 208.206 120.466 207.884 121.374C207.772 121.704 207.675 121.967 207.498 122.314H204.888ZM210.928 113.097C210.751 113.047 210.429 112.998 209.929 112.998C208.867 112.998 208.013 113.443 208.013 114.581C208.013 115.603 208.931 116.147 210.059 116.147C210.365 116.147 210.703 116.147 210.928 116.098V113.097Z" fill="white"/>
<path d="M218.402 113.311H215.471V111.201H223.815V113.311H220.851V122.314H218.402V113.311Z" fill="white"/>
<path d="M228.085 111.185L229.664 115.19C229.969 115.966 230.18 116.642 230.437 117.319H230.485C230.614 116.84 230.807 116.098 231.065 115.141L232.241 111.185H234.835L232.789 116.675C232.128 118.39 231.468 120.071 230.646 121.094C229.937 122.001 229.036 122.561 227.764 122.561C227.199 122.561 226.877 122.495 226.554 122.38L226.733 120.369C226.942 120.418 227.183 120.45 227.537 120.45C228.295 120.45 228.811 119.923 229.02 119.429C229.1 119.23 229.052 119.083 228.972 118.902L225.314 111.185L228.085 111.185Z" fill="white"/>
<path d="M243.889 113.493C243.405 113.262 242.633 113.047 241.747 113.047C239.797 113.047 238.702 114.234 238.461 115.719H243.389V117.681H238.477C238.638 119.313 239.91 120.434 241.876 120.434C242.535 120.434 243.373 120.285 243.92 120.055L244.292 121.951C243.809 122.198 242.778 122.495 241.505 122.495C237.946 122.495 235.819 120.285 235.819 116.791C235.819 113.823 237.735 111.019 241.634 111.019C243.003 111.019 243.938 111.349 244.388 111.58L243.889 113.493Z" fill="white"/>
<path d="M255.889 118.06C255.839 116.724 255.791 115.108 255.791 113.493H255.759C255.405 114.911 254.954 116.494 254.535 117.796L253.214 122.133H251.298L250.138 117.846C249.783 116.526 249.429 114.943 249.155 113.493H249.123C249.075 114.992 249.011 116.708 248.946 118.093L248.737 122.314H246.466L247.158 111.201H250.428L251.491 114.911C251.845 116.196 252.167 117.582 252.408 118.885H252.474C252.763 117.598 253.134 116.131 253.505 114.894L254.647 111.201H257.869L258.45 122.314H256.066L255.889 118.06Z" fill="white"/>
<path d="M271 116.642C271 120.303 268.858 122.495 265.669 122.495C262.463 122.495 260.562 120.006 260.562 116.824C260.562 113.493 262.656 111.003 265.846 111.003C269.179 111.003 271 113.558 271 116.642ZM263.155 116.774C263.155 118.967 264.154 120.501 265.798 120.501C267.456 120.501 268.407 118.885 268.407 116.724C268.407 114.713 267.489 112.998 265.798 112.998C264.122 112.998 263.155 114.613 263.155 116.774Z" fill="white"/>
<path d="M195.787 127.491C196.545 127.36 197.608 127.262 199.106 127.262C200.619 127.262 201.699 127.559 202.424 128.151C203.132 128.712 203.584 129.634 203.584 130.725C203.584 131.813 203.246 132.752 202.585 133.362C201.747 134.152 200.507 134.533 199.057 134.533C198.735 134.533 198.446 134.515 198.219 134.467V138.457H195.787V127.491ZM198.219 132.538C198.43 132.586 198.671 132.604 199.041 132.604C200.346 132.604 201.151 131.926 201.151 130.805C201.151 129.783 200.458 129.173 199.218 129.173C198.735 129.173 198.396 129.206 198.219 129.256V132.538Z" fill="white"/>
<path d="M207.499 135.603L206.725 138.457H204.198L207.499 127.342H210.721L214.103 138.457H211.446L210.608 135.603H207.499ZM210.254 133.724L209.577 131.367C209.384 130.707 209.191 129.884 209.03 129.224H208.998C208.837 129.884 208.675 130.725 208.498 131.367L207.854 133.724H210.254Z" fill="white"/>
<path d="M216.021 128.035C216.761 127.592 217.889 127.146 219.404 127.146C221.77 127.146 223.173 128.365 223.173 129.997C223.173 131.4 222.254 132.306 220.998 132.619V132.651C222.351 132.85 223.527 133.808 223.527 135.291C223.527 137.782 221.094 138.638 219.065 138.638C217.937 138.638 216.713 138.391 215.812 137.862L216.327 135.918C216.811 136.183 217.937 136.593 218.952 136.593C220.192 136.593 220.95 136.049 220.95 135.127C220.95 133.906 219.693 133.659 218.662 133.659H217.631V131.795H218.662C219.774 131.795 220.612 131.284 220.612 130.395C220.612 129.67 220.015 129.173 218.968 129.173C218.13 129.173 217.197 129.521 216.584 129.833L216.021 128.035Z" fill="white"/>
<path d="M235.851 132.785C235.851 136.444 233.71 138.638 230.52 138.638C227.314 138.638 225.414 136.147 225.414 132.966C225.414 129.634 227.507 127.146 230.697 127.146C234.031 127.146 235.851 129.702 235.851 132.785ZM228.007 132.916C228.007 135.11 229.006 136.643 230.649 136.643C232.307 136.643 233.258 135.026 233.258 132.868C233.258 130.856 232.341 129.141 230.649 129.141C228.974 129.141 228.007 130.758 228.007 132.916Z" fill="white"/>
<path d="M247.37 134.203C247.321 132.868 247.273 131.251 247.273 129.634H247.241C246.887 131.052 246.435 132.636 246.017 133.938L244.696 138.275H242.779L241.619 133.989C241.265 132.669 240.911 131.088 240.636 129.634H240.604C240.556 131.135 240.493 132.85 240.427 134.236L240.218 138.457H237.947L238.64 127.342H241.91L242.972 131.052C243.327 132.339 243.649 133.724 243.89 135.026H243.955C244.244 133.742 244.616 132.274 244.986 131.037L246.129 127.342H249.351L249.931 138.457H247.547L247.37 134.203Z" fill="white"/>
<path d="M83.2837 112.555L81.4253 117.628C77.3444 115.285 72.7575 115.404 70.1319 117.847C67.6664 120.141 67.6754 123.792 67.6799 125.618C67.6848 127.606 67.6725 130.993 70.0556 133.142C72.3637 135.224 75.564 134.929 77.513 134.75C79.7036 134.548 81.4247 133.859 82.5156 133.317C82.5031 135.19 82.4908 137.063 82.4783 138.935C75.0423 141.649 67.4881 140.313 63.987 135.796C60.4778 131.269 60.9613 125.294 61.1064 123.842C61.2891 122.016 61.6894 118.492 64.3598 115.34C66.7681 112.498 69.6881 111.534 70.8548 111.166C76.7787 109.296 81.9567 111.848 83.2837 112.555Z" fill="white"/>
<path d="M87.4359 111.033V139.633H93.197V118.135L99.9493 139.633H105.71L113.02 118.072V139.633H118.843V111.033H109.985L103.14 132.974L95.8608 111.033H87.4359Z" fill="white"/>
<path d="M138.601 111.033H131.074L121.039 139.633H127.915L130.052 132.848H140.181L142.504 139.633H149.287L138.601 111.033ZM131.121 127.996L134.884 115.821L139.019 127.996H131.121Z" fill="white"/>
<path d="M169.731 142L169.362 141.783C158.074 135.172 151.038 127.048 150.999 120.583C150.992 119.352 150.974 116.467 152.876 113.887C155.331 110.559 159.218 110.085 160.35 110.02C165.073 109.716 168.417 113.016 169.728 114.585C171.032 113.013 174.354 109.722 179.112 110.02C180.244 110.085 184.131 110.561 186.586 113.887V113.888C188.487 116.467 188.469 119.352 188.462 120.583C188.423 127.048 181.387 135.172 170.1 141.783L169.731 142ZM160.915 111.525C160.757 111.525 160.597 111.53 160.435 111.539C159.463 111.595 156.133 111.998 154.064 114.805C152.464 116.974 152.478 119.405 152.486 120.574C152.52 126.43 159.118 133.947 169.731 140.246C180.345 133.944 186.94 126.43 186.975 120.574C186.983 119.405 186.997 116.972 185.399 114.804C183.33 111.999 179.999 111.595 179.028 111.539C173.766 111.271 170.482 116.043 170.347 116.247L169.734 117.172L169.118 116.25C168.985 116.052 165.895 111.525 160.915 111.525Z" fill="white"/>
</svg>
